<?xml version="1.0" encoding="utf-8" standalone="no"?>
<!DOCTYPE svg PUBLIC "-//W3C//DTD SVG 1.1//EN"
  "http://www.w3.org/Graphics/SVG/1.1/DTD/svg11.dtd">
<svg xmlns:xlink="http://www.w3.org/1999/xlink" width="437.00535pt" height="412.75575pt" viewBox="0 0 437.00535 412.75575" xmlns="http://www.w3.org/2000/svg" version="1.1">
 <metadata>
  <rdf:RDF xmlns:dc="http://purl.org/dc/elements/1.1/" xmlns:cc="http://creativecommons.org/ns#" xmlns:rdf="http://www.w3.org/1999/02/22-rdf-syntax-ns#">
   <cc:Work>
    <dc:type rdf:resource="http://purl.org/dc/dcmitype/StillImage"/>
    <dc:date>2022-01-31T16:25:22.607267</dc:date>
    <dc:format>image/svg+xml</dc:format>
    <dc:creator>
     <cc:Agent>
      <dc:title>Matplotlib v3.5.1, https://matplotlib.org/</dc:title>
     </cc:Agent>
    </dc:creator>
   </cc:Work>
  </rdf:RDF>
 </metadata>
 <defs>
  <style type="text/css">*{stroke-linejoin: round; stroke-linecap: butt}</style>
 </defs>
 <g id="figure_1">
  <g id="patch_1">
   <path d="M 0 412.75575 
L 437.00535 412.75575 
L 437.00535 0 
L 0 0 
z
" style="fill: #ffffff"/>
  </g>
  <g id="axes_1">
   <g id="patch_2">
    <path d="M 139.44375 273.312 
L 405.55575 273.312 
L 405.55575 7.2 
L 139.44375 7.2 
z
" style="fill: #ffffff"/>
   </g>
   <g id="QuadMesh_1">
    <path d="M 139.44375 7.2 
L 158.45175 7.2 
L 158.45175 26.208 
L 139.44375 26.208 
L 139.44375 7.2 
" clip-path="url(#p5c9e1bbc8b)" style="fill: none; stroke: #808080; stroke-width: 0.5"/>
    <path d="M 158.45175 7.2 
L 177.45975 7.2 
L 177.45975 26.208 
L 158.45175 26.208 
L 158.45175 7.2 
" clip-path="url(#p5c9e1bbc8b)" style="fill: #a1d99b; stroke: #808080; stroke-width: 0.5"/>
    <path d="M 177.45975 7.2 
L 196.46775 7.2 
L 196.46775 26.208 
L 177.45975 26.208 
L 177.45975 7.2 
" clip-path="url(#p5c9e1bbc8b)" style="fill: #005a32; stroke: #808080; stroke-width: 0.5"/>
    <path d="M 196.46775 7.2 
L 215.47575 7.2 
L 215.47575 26.208 
L 196.46775 26.208 
L 196.46775 7.2 
" clip-path="url(#p5c9e1bbc8b)" style="fill: #fbd7d4; stroke: #808080; stroke-width: 0.5"/>
    <path d="M 215.47575 7.2 
L 234.48375 7.2 
L 234.48375 26.208 
L 215.47575 26.208 
L 215.47575 7.2 
" clip-path="url(#p5c9e1bbc8b)" style="fill: #a1d99b; stroke: #808080; stroke-width: 0.5"/>
    <path d="M 234.48375 7.2 
L 253.49175 7.2 
L 253.49175 26.208 
L 234.48375 26.208 
L 234.48375 7.2 
" clip-path="url(#p5c9e1bbc8b)" style="fill: #005a32; stroke: #808080; stroke-width: 0.5"/>
    <path d="M 253.49175 7.2 
L 272.49975 7.2 
L 272.49975 26.208 
L 253.49175 26.208 
L 253.49175 7.2 
" clip-path="url(#p5c9e1bbc8b)" style="fill: #005a32; stroke: #808080; stroke-width: 0.5"/>
    <path d="M 272.49975 7.2 
L 291.50775 7.2 
L 291.50775 26.208 
L 272.49975 26.208 
L 272.49975 7.2 
" clip-path="url(#p5c9e1bbc8b)" style="fill: #005a32; stroke: #808080; stroke-width: 0.5"/>
    <path d="M 291.50775 7.2 
L 310.51575 7.2 
L 310.51575 26.208 
L 291.50775 26.208 
L 291.50775 7.2 
" clip-path="url(#p5c9e1bbc8b)" style="fill: #005a32; stroke: #808080; stroke-width: 0.5"/>
    <path d="M 310.51575 7.2 
L 329.52375 7.2 
L 329.52375 26.208 
L 310.51575 26.208 
L 310.51575 7.2 
" clip-path="url(#p5c9e1bbc8b)" style="fill: #005a32; stroke: #808080; stroke-width: 0.5"/>
    <path d="M 329.52375 7.2 
L 348.53175 7.2 
L 348.53175 26.208 
L 329.52375 26.208 
L 329.52375 7.2 
" clip-path="url(#p5c9e1bbc8b)" style="fill: #005a32; stroke: #808080; stroke-width: 0.5"/>
    <path d="M 348.53175 7.2 
L 367.53975 7.2 
L 367.53975 26.208 
L 348.53175 26.208 
L 348.53175 7.2 
" clip-path="url(#p5c9e1bbc8b)" style="fill: #fbd7d4; stroke: #808080; stroke-width: 0.5"/>
    <path d="M 367.53975 7.2 
L 386.54775 7.2 
L 386.54775 26.208 
L 367.53975 26.208 
L 367.53975 7.2 
" clip-path="url(#p5c9e1bbc8b)" style="fill: #fbd7d4; stroke: #808080; stroke-width: 0.5"/>
    <path d="M 386.54775 7.2 
L 405.55575 7.2 
L 405.55575 26.208 
L 386.54775 26.208 
L 386.54775 7.2 
" clip-path="url(#p5c9e1bbc8b)" style="fill: #005a32; stroke: #808080; stroke-width: 0.5"/>
    <path d="M 139.44375 26.208 
L 158.45175 26.208 
L 158.45175 45.216 
L 139.44375 45.216 
L 139.44375 26.208 
" clip-path="url(#p5c9e1bbc8b)" style="fill: #a1d99b; stroke: #808080; stroke-width: 0.5"/>
    <path d="M 158.45175 26.208 
L 177.45975 26.208 
L 177.45975 45.216 
L 158.45175 45.216 
L 158.45175 26.208 
" clip-path="url(#p5c9e1bbc8b)" style="fill: none; stroke: #808080; stroke-width: 0.5"/>
    <path d="M 177.45975 26.208 
L 196.46775 26.208 
L 196.46775 45.216 
L 177.45975 45.216 
L 177.45975 26.208 
" clip-path="url(#p5c9e1bbc8b)" style="fill: #005a32; stroke: #808080; stroke-width: 0.5"/>
    <path d="M 196.46775 26.208 
L 215.47575 26.208 
L 215.47575 45.216 
L 196.46775 45.216 
L 196.46775 26.208 
" clip-path="url(#p5c9e1bbc8b)" style="fill: #005a32; stroke: #808080; stroke-width: 0.5"/>
    <path d="M 215.47575 26.208 
L 234.48375 26.208 
L 234.48375 45.216 
L 215.47575 45.216 
L 215.47575 26.208 
" clip-path="url(#p5c9e1bbc8b)" style="fill: #fbd7d4; stroke: #808080; stroke-width: 0.5"/>
    <path d="M 234.48375 26.208 
L 253.49175 26.208 
L 253.49175 45.216 
L 234.48375 45.216 
L 234.48375 26.208 
" clip-path="url(#p5c9e1bbc8b)" style="fill: #005a32; stroke: #808080; stroke-width: 0.5"/>
    <path d="M 253.49175 26.208 
L 272.49975 26.208 
L 272.49975 45.216 
L 253.49175 45.216 
L 253.49175 26.208 
" clip-path="url(#p5c9e1bbc8b)" style="fill: #005a32; stroke: #808080; stroke-width: 0.5"/>
    <path d="M 272.49975 26.208 
L 291.50775 26.208 
L 291.50775 45.216 
L 272.49975 45.216 
L 272.49975 26.208 
" clip-path="url(#p5c9e1bbc8b)" style="fill: #005a32; stroke: #808080; stroke-width: 0.5"/>
    <path d="M 291.50775 26.208 
L 310.51575 26.208 
L 310.51575 45.216 
L 291.50775 45.216 
L 291.50775 26.208 
" clip-path="url(#p5c9e1bbc8b)" style="fill: #005a32; stroke: #808080; stroke-width: 0.5"/>
    <path d="M 310.51575 26.208 
L 329.52375 26.208 
L 329.52375 45.216 
L 310.51575 45.216 
L 310.51575 26.208 
" clip-path="url(#p5c9e1bbc8b)" style="fill: #005a32; stroke: #808080; stroke-width: 0.5"/>
    <path d="M 329.52375 26.208 
L 348.53175 26.208 
L 348.53175 45.216 
L 329.52375 45.216 
L 329.52375 26.208 
" clip-path="url(#p5c9e1bbc8b)" style="fill: #005a32; stroke: #808080; stroke-width: 0.5"/>
    <path d="M 348.53175 26.208 
L 367.53975 26.208 
L 367.53975 45.216 
L 348.53175 45.216 
L 348.53175 26.208 
" clip-path="url(#p5c9e1bbc8b)" style="fill: #a1d99b; stroke: #808080; stroke-width: 0.5"/>
    <path d="M 367.53975 26.208 
L 386.54775 26.208 
L 386.54775 45.216 
L 367.53975 45.216 
L 367.53975 26.208 
" clip-path="url(#p5c9e1bbc8b)" style="fill: #238b45; stroke: #808080; stroke-width: 0.5"/>
    <path d="M 386.54775 26.208 
L 405.55575 26.208 
L 405.55575 45.216 
L 386.54775 45.216 
L 386.54775 26.208 
" clip-path="url(#p5c9e1bbc8b)" style="fill: #005a32; stroke: #808080; stroke-width: 0.5"/>
    <path d="M 139.44375 45.216 
L 158.45175 45.216 
L 158.45175 64.224 
L 139.44375 64.224 
L 139.44375 45.216 
" clip-path="url(#p5c9e1bbc8b)" style="fill: #005a32; stroke: #808080; stroke-width: 0.5"/>
    <path d="M 158.45175 45.216 
L 177.45975 45.216 
L 177.45975 64.224 
L 158.45175 64.224 
L 158.45175 45.216 
" clip-path="url(#p5c9e1bbc8b)" style="fill: #005a32; stroke: #808080; stroke-width: 0.5"/>
    <path d="M 177.45975 45.216 
L 196.46775 45.216 
L 196.46775 64.224 
L 177.45975 64.224 
L 177.45975 45.216 
" clip-path="url(#p5c9e1bbc8b)" style="fill: none; stroke: #808080; stroke-width: 0.5"/>
    <path d="M 196.46775 45.216 
L 215.47575 45.216 
L 215.47575 64.224 
L 196.46775 64.224 
L 196.46775 45.216 
" clip-path="url(#p5c9e1bbc8b)" style="fill: #005a32; stroke: #808080; stroke-width: 0.5"/>
    <path d="M 215.47575 45.216 
L 234.48375 45.216 
L 234.48375 64.224 
L 215.47575 64.224 
L 215.47575 45.216 
" clip-path="url(#p5c9e1bbc8b)" style="fill: #005a32; stroke: #808080; stroke-width: 0.5"/>
    <path d="M 234.48375 45.216 
L 253.49175 45.216 
L 253.49175 64.224 
L 234.48375 64.224 
L 234.48375 45.216 
" clip-path="url(#p5c9e1bbc8b)" style="fill: #005a32; stroke: #808080; stroke-width: 0.5"/>
    <path d="M 253.49175 45.216 
L 272.49975 45.216 
L 272.49975 64.224 
L 253.49175 64.224 
L 253.49175 45.216 
" clip-path="url(#p5c9e1bbc8b)" style="fill: #005a32; stroke: #808080; stroke-width: 0.5"/>
    <path d="M 272.49975 45.216 
L 291.50775 45.216 
L 291.50775 64.224 
L 272.49975 64.224 
L 272.49975 45.216 
" clip-path="url(#p5c9e1bbc8b)" style="fill: #005a32; stroke: #808080; stroke-width: 0.5"/>
    <path d="M 291.50775 45.216 
L 310.51575 45.216 
L 310.51575 64.224 
L 291.50775 64.224 
L 291.50775 45.216 
" clip-path="url(#p5c9e1bbc8b)" style="fill: #005a32; stroke: #808080; stroke-width: 0.5"/>
    <path d="M 310.51575 45.216 
L 329.52375 45.216 
L 329.52375 64.224 
L 310.51575 64.224 
L 310.51575 45.216 
" clip-path="url(#p5c9e1bbc8b)" style="fill: #005a32; stroke: #808080; stroke-width: 0.5"/>
    <path d="M 329.52375 45.216 
L 348.53175 45.216 
L 348.53175 64.224 
L 329.52375 64.224 
L 329.52375 45.216 
" clip-path="url(#p5c9e1bbc8b)" style="fill: #005a32; stroke: #808080; stroke-width: 0.5"/>
    <path d="M 348.53175 45.216 
L 367.53975 45.216 
L 367.53975 64.224 
L 348.53175 64.224 
L 348.53175 45.216 
" clip-path="url(#p5c9e1bbc8b)" style="fill: #005a32; stroke: #808080; stroke-width: 0.5"/>
    <path d="M 367.53975 45.216 
L 386.54775 45.216 
L 386.54775 64.224 
L 367.53975 64.224 
L 367.53975 45.216 
" clip-path="url(#p5c9e1bbc8b)" style="fill: #238b45; stroke: #808080; stroke-width: 0.5"/>
    <path d="M 386.54775 45.216 
L 405.55575 45.216 
L 405.55575 64.224 
L 386.54775 64.224 
L 386.54775 45.216 
" clip-path="url(#p5c9e1bbc8b)" style="fill: #005a32; stroke: #808080; stroke-width: 0.5"/>
    <path d="M 139.44375 64.224 
L 158.45175 64.224 
L 158.45175 83.232 
L 139.44375 83.232 
L 139.44375 64.224 
" clip-path="url(#p5c9e1bbc8b)" style="fill: #fbd7d4; stroke: #808080; stroke-width: 0.5"/>
    <path d="M 158.45175 64.224 
L 177.45975 64.224 
L 177.45975 83.232 
L 158.45175 83.232 
L 158.45175 64.224 
" clip-path="url(#p5c9e1bbc8b)" style="fill: #005a32; stroke: #808080; stroke-width: 0.5"/>
    <path d="M 177.45975 64.224 
L 196.46775 64.224 
L 196.46775 83.232 
L 177.45975 83.232 
L 177.45975 64.224 
" clip-path="url(#p5c9e1bbc8b)" style="fill: #005a32; stroke: #808080; stroke-width: 0.5"/>
    <path d="M 196.46775 64.224 
L 215.47575 64.224 
L 215.47575 83.232 
L 196.46775 83.232 
L 196.46775 64.224 
" clip-path="url(#p5c9e1bbc8b)" style="fill: none; stroke: #808080; stroke-width: 0.5"/>
    <path d="M 215.47575 64.224 
L 234.48375 64.224 
L 234.48375 83.232 
L 215.47575 83.232 
L 215.47575 64.224 
" clip-path="url(#p5c9e1bbc8b)" style="fill: #238b45; stroke: #808080; stroke-width: 0.5"/>
    <path d="M 234.48375 64.224 
L 253.49175 64.224 
L 253.49175 83.232 
L 234.48375 83.232 
L 234.48375 64.224 
" clip-path="url(#p5c9e1bbc8b)" style="fill: #005a32; stroke: #808080; stroke-width: 0.5"/>
    <path d="M 253.49175 64.224 
L 272.49975 64.224 
L 272.49975 83.232 
L 253.49175 83.232 
L 253.49175 64.224 
" clip-path="url(#p5c9e1bbc8b)" style="fill: #005a32; stroke: #808080; stroke-width: 0.5"/>
    <path d="M 272.49975 64.224 
L 291.50775 64.224 
L 291.50775 83.232 
L 272.49975 83.232 
L 272.49975 64.224 
" clip-path="url(#p5c9e1bbc8b)" style="fill: #005a32; stroke: #808080; stroke-width: 0.5"/>
    <path d="M 291.50775 64.224 
L 310.51575 64.224 
L 310.51575 83.232 
L 291.50775 83.232 
L 291.50775 64.224 
" clip-path="url(#p5c9e1bbc8b)" style="fill: #005a32; stroke: #808080; stroke-width: 0.5"/>
    <path d="M 310.51575 64.224 
L 329.52375 64.224 
L 329.52375 83.232 
L 310.51575 83.232 
L 310.51575 64.224 
" clip-path="url(#p5c9e1bbc8b)" style="fill: #005a32; stroke: #808080; stroke-width: 0.5"/>
    <path d="M 329.52375 64.224 
L 348.53175 64.224 
L 348.53175 83.232 
L 329.52375 83.232 
L 329.52375 64.224 
" clip-path="url(#p5c9e1bbc8b)" style="fill: #005a32; stroke: #808080; stroke-width: 0.5"/>
    <path d="M 348.53175 64.224 
L 367.53975 64.224 
L 367.53975 83.232 
L 348.53175 83.232 
L 348.53175 64.224 
" clip-path="url(#p5c9e1bbc8b)" style="fill: #fbd7d4; stroke: #808080; stroke-width: 0.5"/>
    <path d="M 367.53975 64.224 
L 386.54775 64.224 
L 386.54775 83.232 
L 367.53975 83.232 
L 367.53975 64.224 
" clip-path="url(#p5c9e1bbc8b)" style="fill: #fbd7d4; stroke: #808080; stroke-width: 0.5"/>
    <path d="M 386.54775 64.224 
L 405.55575 64.224 
L 405.55575 83.232 
L 386.54775 83.232 
L 386.54775 64.224 
" clip-path="url(#p5c9e1bbc8b)" style="fill: #005a32; stroke: #808080; stroke-width: 0.5"/>
    <path d="M 139.44375 83.232 
L 158.45175 83.232 
L 158.45175 102.24 
L 139.44375 102.24 
L 139.44375 83.232 
" clip-path="url(#p5c9e1bbc8b)" style="fill: #a1d99b; stroke: #808080; stroke-width: 0.5"/>
    <path d="M 158.45175 83.232 
L 177.45975 83.232 
L 177.45975 102.24 
L 158.45175 102.24 
L 158.45175 83.232 
" clip-path="url(#p5c9e1bbc8b)" style="fill: #fbd7d4; stroke: #808080; stroke-width: 0.5"/>
    <path d="M 177.45975 83.232 
L 196.46775 83.232 
L 196.46775 102.24 
L 177.45975 102.24 
L 177.45975 83.232 
" clip-path="url(#p5c9e1bbc8b)" style="fill: #005a32; stroke: #808080; stroke-width: 0.5"/>
    <path d="M 196.46775 83.232 
L 215.47575 83.232 
L 215.47575 102.24 
L 196.46775 102.24 
L 196.46775 83.232 
" clip-path="url(#p5c9e1bbc8b)" style="fill: #238b45; stroke: #808080; stroke-width: 0.5"/>
    <path d="M 215.47575 83.232 
L 234.48375 83.232 
L 234.48375 102.24 
L 215.47575 102.24 
L 215.47575 83.232 
" clip-path="url(#p5c9e1bbc8b)" style="fill: none; stroke: #808080; stroke-width: 0.5"/>
    <path d="M 234.48375 83.232 
L 253.49175 83.232 
L 253.49175 102.24 
L 234.48375 102.24 
L 234.48375 83.232 
" clip-path="url(#p5c9e1bbc8b)" style="fill: #005a32; stroke: #808080; stroke-width: 0.5"/>
    <path d="M 253.49175 83.232 
L 272.49975 83.232 
L 272.49975 102.24 
L 253.49175 102.24 
L 253.49175 83.232 
" clip-path="url(#p5c9e1bbc8b)" style="fill: #005a32; stroke: #808080; stroke-width: 0.5"/>
    <path d="M 272.49975 83.232 
L 291.50775 83.232 
L 291.50775 102.24 
L 272.49975 102.24 
L 272.49975 83.232 
" clip-path="url(#p5c9e1bbc8b)" style="fill: #005a32; stroke: #808080; stroke-width: 0.5"/>
    <path d="M 291.50775 83.232 
L 310.51575 83.232 
L 310.51575 102.24 
L 291.50775 102.24 
L 291.50775 83.232 
" clip-path="url(#p5c9e1bbc8b)" style="fill: #005a32; stroke: #808080; stroke-width: 0.5"/>
    <path d="M 310.51575 83.232 
L 329.52375 83.232 
L 329.52375 102.24 
L 310.51575 102.24 
L 310.51575 83.232 
" clip-path="url(#p5c9e1bbc8b)" style="fill: #005a32; stroke: #808080; stroke-width: 0.5"/>
    <path d="M 329.52375 83.232 
L 348.53175 83.232 
L 348.53175 102.24 
L 329.52375 102.24 
L 329.52375 83.232 
" clip-path="url(#p5c9e1bbc8b)" style="fill: #005a32; stroke: #808080; stroke-width: 0.5"/>
    <path d="M 348.53175 83.232 
L 367.53975 83.232 
L 367.53975 102.24 
L 348.53175 102.24 
L 348.53175 83.232 
" clip-path="url(#p5c9e1bbc8b)" style="fill: #a1d99b; stroke: #808080; stroke-width: 0.5"/>
    <path d="M 367.53975 83.232 
L 386.54775 83.232 
L 386.54775 102.24 
L 367.53975 102.24 
L 367.53975 83.232 
" clip-path="url(#p5c9e1bbc8b)" style="fill: #238b45; stroke: #808080; stroke-width: 0.5"/>
    <path d="M 386.54775 83.232 
L 405.55575 83.232 
L 405.55575 102.24 
L 386.54775 102.24 
L 386.54775 83.232 
" clip-path="url(#p5c9e1bbc8b)" style="fill: #005a32; stroke: #808080; stroke-width: 0.5"/>
    <path d="M 139.44375 102.24 
L 158.45175 102.24 
L 158.45175 121.248 
L 139.44375 121.248 
L 139.44375 102.24 
" clip-path="url(#p5c9e1bbc8b)" style="fill: #005a32; stroke: #808080; stroke-width: 0.5"/>
    <path d="M 158.45175 102.24 
L 177.45975 102.24 
L 177.45975 121.248 
L 158.45175 121.248 
L 158.45175 102.24 
" clip-path="url(#p5c9e1bbc8b)" style="fill: #005a32; stroke: #808080; stroke-width: 0.5"/>
    <path d="M 177.45975 102.24 
L 196.46775 102.24 
L 196.46775 121.248 
L 177.45975 121.248 
L 177.45975 102.24 
" clip-path="url(#p5c9e1bbc8b)" style="fill: #005a32; stroke: #808080; stroke-width: 0.5"/>
    <path d="M 196.46775 102.24 
L 215.47575 102.24 
L 215.47575 121.248 
L 196.46775 121.248 
L 196.46775 102.24 
" clip-path="url(#p5c9e1bbc8b)" style="fill: #005a32; stroke: #808080; stroke-width: 0.5"/>
    <path d="M 215.47575 102.24 
L 234.48375 102.24 
L 234.48375 121.248 
L 215.47575 121.248 
L 215.47575 102.24 
" clip-path="url(#p5c9e1bbc8b)" style="fill: #005a32; stroke: #808080; stroke-width: 0.5"/>
    <path d="M 234.48375 102.24 
L 253.49175 102.24 
L 253.49175 121.248 
L 234.48375 121.248 
L 234.48375 102.24 
" clip-path="url(#p5c9e1bbc8b)" style="fill: none; stroke: #808080; stroke-width: 0.5"/>
    <path d="M 253.49175 102.24 
L 272.49975 102.24 
L 272.49975 121.248 
L 253.49175 121.248 
L 253.49175 102.24 
" clip-path="url(#p5c9e1bbc8b)" style="fill: #005a32; stroke: #808080; stroke-width: 0.5"/>
    <path d="M 272.49975 102.24 
L 291.50775 102.24 
L 291.50775 121.248 
L 272.49975 121.248 
L 272.49975 102.24 
" clip-path="url(#p5c9e1bbc8b)" style="fill: #005a32; stroke: #808080; stroke-width: 0.5"/>
    <path d="M 291.50775 102.24 
L 310.51575 102.24 
L 310.51575 121.248 
L 291.50775 121.248 
L 291.50775 102.24 
" clip-path="url(#p5c9e1bbc8b)" style="fill: #005a32; stroke: #808080; stroke-width: 0.5"/>
    <path d="M 310.51575 102.24 
L 329.52375 102.24 
L 329.52375 121.248 
L 310.51575 121.248 
L 310.51575 102.24 
" clip-path="url(#p5c9e1bbc8b)" style="fill: #005a32; stroke: #808080; stroke-width: 0.5"/>
    <path d="M 329.52375 102.24 
L 348.53175 102.24 
L 348.53175 121.248 
L 329.52375 121.248 
L 329.52375 102.24 
" clip-path="url(#p5c9e1bbc8b)" style="fill: #005a32; stroke: #808080; stroke-width: 0.5"/>
    <path d="M 348.53175 102.24 
L 367.53975 102.24 
L 367.53975 121.248 
L 348.53175 121.248 
L 348.53175 102.24 
" clip-path="url(#p5c9e1bbc8b)" style="fill: #005a32; stroke: #808080; stroke-width: 0.5"/>
    <path d="M 367.53975 102.24 
L 386.54775 102.24 
L 386.54775 121.248 
L 367.53975 121.248 
L 367.53975 102.24 
" clip-path="url(#p5c9e1bbc8b)" style="fill: #238b45; stroke: #808080; stroke-width: 0.5"/>
    <path d="M 386.54775 102.24 
L 405.55575 102.24 
L 405.55575 121.248 
L 386.54775 121.248 
L 386.54775 102.24 
" clip-path="url(#p5c9e1bbc8b)" style="fill: #005a32; stroke: #808080; stroke-width: 0.5"/>
    <path d="M 139.44375 121.248 
L 158.45175 121.248 
L 158.45175 140.256 
L 139.44375 140.256 
L 139.44375 121.248 
" clip-path="url(#p5c9e1bbc8b)" style="fill: #005a32; stroke: #808080; stroke-width: 0.5"/>
    <path d="M 158.45175 121.248 
L 177.45975 121.248 
L 177.45975 140.256 
L 158.45175 140.256 
L 158.45175 121.248 
" clip-path="url(#p5c9e1bbc8b)" style="fill: #005a32; stroke: #808080; stroke-width: 0.5"/>
    <path d="M 177.45975 121.248 
L 196.46775 121.248 
L 196.46775 140.256 
L 177.45975 140.256 
L 177.45975 121.248 
" clip-path="url(#p5c9e1bbc8b)" style="fill: #005a32; stroke: #808080; stroke-width: 0.5"/>
    <path d="M 196.46775 121.248 
L 215.47575 121.248 
L 215.47575 140.256 
L 196.46775 140.256 
L 196.46775 121.248 
" clip-path="url(#p5c9e1bbc8b)" style="fill: #005a32; stroke: #808080; stroke-width: 0.5"/>
    <path d="M 215.47575 121.248 
L 234.48375 121.248 
L 234.48375 140.256 
L 215.47575 140.256 
L 215.47575 121.248 
" clip-path="url(#p5c9e1bbc8b)" style="fill: #005a32; stroke: #808080; stroke-width: 0.5"/>
    <path d="M 234.48375 121.248 
L 253.49175 121.248 
L 253.49175 140.256 
L 234.48375 140.256 
L 234.48375 121.248 
" clip-path="url(#p5c9e1bbc8b)" style="fill: #005a32; stroke: #808080; stroke-width: 0.5"/>
    <path d="M 253.49175 121.248 
L 272.49975 121.248 
L 272.49975 140.256 
L 253.49175 140.256 
L 253.49175 121.248 
" clip-path="url(#p5c9e1bbc8b)" style="fill: none; stroke: #808080; stroke-width: 0.5"/>
    <path d="M 272.49975 121.248 
L 291.50775 121.248 
L 291.50775 140.256 
L 272.49975 140.256 
L 272.49975 121.248 
" clip-path="url(#p5c9e1bbc8b)" style="fill: #005a32; stroke: #808080; stroke-width: 0.5"/>
    <path d="M 291.50775 121.248 
L 310.51575 121.248 
L 310.51575 140.256 
L 291.50775 140.256 
L 291.50775 121.248 
" clip-path="url(#p5c9e1bbc8b)" style="fill: #005a32; stroke: #808080; stroke-width: 0.5"/>
    <path d="M 310.51575 121.248 
L 329.52375 121.248 
L 329.52375 140.256 
L 310.51575 140.256 
L 310.51575 121.248 
" clip-path="url(#p5c9e1bbc8b)" style="fill: #238b45; stroke: #808080; stroke-width: 0.5"/>
    <path d="M 329.52375 121.248 
L 348.53175 121.248 
L 348.53175 140.256 
L 329.52375 140.256 
L 329.52375 121.248 
" clip-path="url(#p5c9e1bbc8b)" style="fill: #fbd7d4; stroke: #808080; stroke-width: 0.5"/>
    <path d="M 348.53175 121.248 
L 367.53975 121.248 
L 367.53975 140.256 
L 348.53175 140.256 
L 348.53175 121.248 
" clip-path="url(#p5c9e1bbc8b)" style="fill: #005a32; stroke: #808080; stroke-width: 0.5"/>
    <path d="M 367.53975 121.248 
L 386.54775 121.248 
L 386.54775 140.256 
L 367.53975 140.256 
L 367.53975 121.248 
" clip-path="url(#p5c9e1bbc8b)" style="fill: #238b45; stroke: #808080; stroke-width: 0.5"/>
    <path d="M 386.54775 121.248 
L 405.55575 121.248 
L 405.55575 140.256 
L 386.54775 140.256 
L 386.54775 121.248 
" clip-path="url(#p5c9e1bbc8b)" style="fill: #005a32; stroke: #808080; stroke-width: 0.5"/>
    <path d="M 139.44375 140.256 
L 158.45175 140.256 
L 158.45175 159.264 
L 139.44375 159.264 
L 139.44375 140.256 
" clip-path="url(#p5c9e1bbc8b)" style="fill: #005a32; stroke: #808080; stroke-width: 0.5"/>
    <path d="M 158.45175 140.256 
L 177.45975 140.256 
L 177.45975 159.264 
L 158.45175 159.264 
L 158.45175 140.256 
" clip-path="url(#p5c9e1bbc8b)" style="fill: #005a32; stroke: #808080; stroke-width: 0.5"/>
    <path d="M 177.45975 140.256 
L 196.46775 140.256 
L 196.46775 159.264 
L 177.45975 159.264 
L 177.45975 140.256 
" clip-path="url(#p5c9e1bbc8b)" style="fill: #005a32; stroke: #808080; stroke-width: 0.5"/>
    <path d="M 196.46775 140.256 
L 215.47575 140.256 
L 215.47575 159.264 
L 196.46775 159.264 
L 196.46775 140.256 
" clip-path="url(#p5c9e1bbc8b)" style="fill: #005a32; stroke: #808080; stroke-width: 0.5"/>
    <path d="M 215.47575 140.256 
L 234.48375 140.256 
L 234.48375 159.264 
L 215.47575 159.264 
L 215.47575 140.256 
" clip-path="url(#p5c9e1bbc8b)" style="fill: #005a32; stroke: #808080; stroke-width: 0.5"/>
    <path d="M 234.48375 140.256 
L 253.49175 140.256 
L 253.49175 159.264 
L 234.48375 159.264 
L 234.48375 140.256 
" clip-path="url(#p5c9e1bbc8b)" style="fill: #005a32; stroke: #808080; stroke-width: 0.5"/>
    <path d="M 253.49175 140.256 
L 272.49975 140.256 
L 272.49975 159.264 
L 253.49175 159.264 
L 253.49175 140.256 
" clip-path="url(#p5c9e1bbc8b)" style="fill: #005a32; stroke: #808080; stroke-width: 0.5"/>
    <path d="M 272.49975 140.256 
L 291.50775 140.256 
L 291.50775 159.264 
L 272.49975 159.264 
L 272.49975 140.256 
" clip-path="url(#p5c9e1bbc8b)" style="fill: none; stroke: #808080; stroke-width: 0.5"/>
    <path d="M 291.50775 140.256 
L 310.51575 140.256 
L 310.51575 159.264 
L 291.50775 159.264 
L 291.50775 140.256 
" clip-path="url(#p5c9e1bbc8b)" style="fill: #005a32; stroke: #808080; stroke-width: 0.5"/>
    <path d="M 310.51575 140.256 
L 329.52375 140.256 
L 329.52375 159.264 
L 310.51575 159.264 
L 310.51575 140.256 
" clip-path="url(#p5c9e1bbc8b)" style="fill: #005a32; stroke: #808080; stroke-width: 0.5"/>
    <path d="M 329.52375 140.256 
L 348.53175 140.256 
L 348.53175 159.264 
L 329.52375 159.264 
L 329.52375 140.256 
" clip-path="url(#p5c9e1bbc8b)" style="fill: #005a32; stroke: #808080; stroke-width: 0.5"/>
    <path d="M 348.53175 140.256 
L 367.53975 140.256 
L 367.53975 159.264 
L 348.53175 159.264 
L 348.53175 140.256 
" clip-path="url(#p5c9e1bbc8b)" style="fill: #005a32; stroke: #808080; stroke-width: 0.5"/>
    <path d="M 367.53975 140.256 
L 386.54775 140.256 
L 386.54775 159.264 
L 367.53975 159.264 
L 367.53975 140.256 
" clip-path="url(#p5c9e1bbc8b)" style="fill: #fbd7d4; stroke: #808080; stroke-width: 0.5"/>
    <path d="M 386.54775 140.256 
L 405.55575 140.256 
L 405.55575 159.264 
L 386.54775 159.264 
L 386.54775 140.256 
" clip-path="url(#p5c9e1bbc8b)" style="fill: #fbd7d4; stroke: #808080; stroke-width: 0.5"/>
    <path d="M 139.44375 159.264 
L 158.45175 159.264 
L 158.45175 178.272 
L 139.44375 178.272 
L 139.44375 159.264 
" clip-path="url(#p5c9e1bbc8b)" style="fill: #005a32; stroke: #808080; stroke-width: 0.5"/>
    <path d="M 158.45175 159.264 
L 177.45975 159.264 
L 177.45975 178.272 
L 158.45175 178.272 
L 158.45175 159.264 
" clip-path="url(#p5c9e1bbc8b)" style="fill: #005a32; stroke: #808080; stroke-width: 0.5"/>
    <path d="M 177.45975 159.264 
L 196.46775 159.264 
L 196.46775 178.272 
L 177.45975 178.272 
L 177.45975 159.264 
" clip-path="url(#p5c9e1bbc8b)" style="fill: #005a32; stroke: #808080; stroke-width: 0.5"/>
    <path d="M 196.46775 159.264 
L 215.47575 159.264 
L 215.47575 178.272 
L 196.46775 178.272 
L 196.46775 159.264 
" clip-path="url(#p5c9e1bbc8b)" style="fill: #005a32; stroke: #808080; stroke-width: 0.5"/>
    <path d="M 215.47575 159.264 
L 234.48375 159.264 
L 234.48375 178.272 
L 215.47575 178.272 
L 215.47575 159.264 
" clip-path="url(#p5c9e1bbc8b)" style="fill: #005a32; stroke: #808080; stroke-width: 0.5"/>
    <path d="M 234.48375 159.264 
L 253.49175 159.264 
L 253.49175 178.272 
L 234.48375 178.272 
L 234.48375 159.264 
" clip-path="url(#p5c9e1bbc8b)" style="fill: #005a32; stroke: #808080; stroke-width: 0.5"/>
    <path d="M 253.49175 159.264 
L 272.49975 159.264 
L 272.49975 178.272 
L 253.49175 178.272 
L 253.49175 159.264 
" clip-path="url(#p5c9e1bbc8b)" style="fill: #005a32; stroke: #808080; stroke-width: 0.5"/>
    <path d="M 272.49975 159.264 
L 291.50775 159.264 
L 291.50775 178.272 
L 272.49975 178.272 
L 272.49975 159.264 
" clip-path="url(#p5c9e1bbc8b)" style="fill: #005a32; stroke: #808080; stroke-width: 0.5"/>
    <path d="M 291.50775 159.264 
L 310.51575 159.264 
L 310.51575 178.272 
L 291.50775 178.272 
L 291.50775 159.264 
" clip-path="url(#p5c9e1bbc8b)" style="fill: none; stroke: #808080; stroke-width: 0.5"/>
    <path d="M 310.51575 159.264 
L 329.52375 159.264 
L 329.52375 178.272 
L 310.51575 178.272 
L 310.51575 159.264 
" clip-path="url(#p5c9e1bbc8b)" style="fill: #005a32; stroke: #808080; stroke-width: 0.5"/>
    <path d="M 329.52375 159.264 
L 348.53175 159.264 
L 348.53175 178.272 
L 329.52375 178.272 
L 329.52375 159.264 
" clip-path="url(#p5c9e1bbc8b)" style="fill: #005a32; stroke: #808080; stroke-width: 0.5"/>
    <path d="M 348.53175 159.264 
L 367.53975 159.264 
L 367.53975 178.272 
L 348.53175 178.272 
L 348.53175 159.264 
" clip-path="url(#p5c9e1bbc8b)" style="fill: #005a32; stroke: #808080; stroke-width: 0.5"/>
    <path d="M 367.53975 159.264 
L 386.54775 159.264 
L 386.54775 178.272 
L 367.53975 178.272 
L 367.53975 159.264 
" clip-path="url(#p5c9e1bbc8b)" style="fill: #238b45; stroke: #808080; stroke-width: 0.5"/>
    <path d="M 386.54775 159.264 
L 405.55575 159.264 
L 405.55575 178.272 
L 386.54775 178.272 
L 386.54775 159.264 
" clip-path="url(#p5c9e1bbc8b)" style="fill: #005a32; stroke: #808080; stroke-width: 0.5"/>
    <path d="M 139.44375 178.272 
L 158.45175 178.272 
L 158.45175 197.28 
L 139.44375 197.28 
L 139.44375 178.272 
" clip-path="url(#p5c9e1bbc8b)" style="fill: #005a32; stroke: #808080; stroke-width: 0.5"/>
    <path d="M 158.45175 178.272 
L 177.45975 178.272 
L 177.45975 197.28 
L 158.45175 197.28 
L 158.45175 178.272 
" clip-path="url(#p5c9e1bbc8b)" style="fill: #005a32; stroke: #808080; stroke-width: 0.5"/>
    <path d="M 177.45975 178.272 
L 196.46775 178.272 
L 196.46775 197.28 
L 177.45975 197.28 
L 177.45975 178.272 
" clip-path="url(#p5c9e1bbc8b)" style="fill: #005a32; stroke: #808080; stroke-width: 0.5"/>
    <path d="M 196.46775 178.272 
L 215.47575 178.272 
L 215.47575 197.28 
L 196.46775 197.28 
L 196.46775 178.272 
" clip-path="url(#p5c9e1bbc8b)" style="fill: #005a32; stroke: #808080; stroke-width: 0.5"/>
    <path d="M 215.47575 178.272 
L 234.48375 178.272 
L 234.48375 197.28 
L 215.47575 197.28 
L 215.47575 178.272 
" clip-path="url(#p5c9e1bbc8b)" style="fill: #005a32; stroke: #808080; stroke-width: 0.5"/>
    <path d="M 234.48375 178.272 
L 253.49175 178.272 
L 253.49175 197.28 
L 234.48375 197.28 
L 234.48375 178.272 
" clip-path="url(#p5c9e1bbc8b)" style="fill: #005a32; stroke: #808080; stroke-width: 0.5"/>
    <path d="M 253.49175 178.272 
L 272.49975 178.272 
L 272.49975 197.28 
L 253.49175 197.28 
L 253.49175 178.272 
" clip-path="url(#p5c9e1bbc8b)" style="fill: #238b45; stroke: #808080; stroke-width: 0.5"/>
    <path d="M 272.49975 178.272 
L 291.50775 178.272 
L 291.50775 197.28 
L 272.49975 197.28 
L 272.49975 178.272 
" clip-path="url(#p5c9e1bbc8b)" style="fill: #005a32; stroke: #808080; stroke-width: 0.5"/>
    <path d="M 291.50775 178.272 
L 310.51575 178.272 
L 310.51575 197.28 
L 291.50775 197.28 
L 291.50775 178.272 
" clip-path="url(#p5c9e1bbc8b)" style="fill: #005a32; stroke: #808080; stroke-width: 0.5"/>
    <path d="M 310.51575 178.272 
L 329.52375 178.272 
L 329.52375 197.28 
L 310.51575 197.28 
L 310.51575 178.272 
" clip-path="url(#p5c9e1bbc8b)" style="fill: none; stroke: #808080; stroke-width: 0.5"/>
    <path d="M 329.52375 178.272 
L 348.53175 178.272 
L 348.53175 197.28 
L 329.52375 197.28 
L 329.52375 178.272 
" clip-path="url(#p5c9e1bbc8b)" style="fill: #005a32; stroke: #808080; stroke-width: 0.5"/>
    <path d="M 348.53175 178.272 
L 367.53975 178.272 
L 367.53975 197.28 
L 348.53175 197.28 
L 348.53175 178.272 
" clip-path="url(#p5c9e1bbc8b)" style="fill: #005a32; stroke: #808080; stroke-width: 0.5"/>
    <path d="M 367.53975 178.272 
L 386.54775 178.272 
L 386.54775 197.28 
L 367.53975 197.28 
L 367.53975 178.272 
" clip-path="url(#p5c9e1bbc8b)" style="fill: #238b45; stroke: #808080; stroke-width: 0.5"/>
    <path d="M 386.54775 178.272 
L 405.55575 178.272 
L 405.55575 197.28 
L 386.54775 197.28 
L 386.54775 178.272 
" clip-path="url(#p5c9e1bbc8b)" style="fill: #005a32; stroke: #808080; stroke-width: 0.5"/>
    <path d="M 139.44375 197.28 
L 158.45175 197.28 
L 158.45175 216.288 
L 139.44375 216.288 
L 139.44375 197.28 
" clip-path="url(#p5c9e1bbc8b)" style="fill: #005a32; stroke: #808080; stroke-width: 0.5"/>
    <path d="M 158.45175 197.28 
L 177.45975 197.28 
L 177.45975 216.288 
L 158.45175 216.288 
L 158.45175 197.28 
" clip-path="url(#p5c9e1bbc8b)" style="fill: #005a32; stroke: #808080; stroke-width: 0.5"/>
    <path d="M 177.45975 197.28 
L 196.46775 197.28 
L 196.46775 216.288 
L 177.45975 216.288 
L 177.45975 197.28 
" clip-path="url(#p5c9e1bbc8b)" style="fill: #005a32; stroke: #808080; stroke-width: 0.5"/>
    <path d="M 196.46775 197.28 
L 215.47575 197.28 
L 215.47575 216.288 
L 196.46775 216.288 
L 196.46775 197.28 
" clip-path="url(#p5c9e1bbc8b)" style="fill: #005a32; stroke: #808080; stroke-width: 0.5"/>
    <path d="M 215.47575 197.28 
L 234.48375 197.28 
L 234.48375 216.288 
L 215.47575 216.288 
L 215.47575 197.28 
" clip-path="url(#p5c9e1bbc8b)" style="fill: #005a32; stroke: #808080; stroke-width: 0.5"/>
    <path d="M 234.48375 197.28 
L 253.49175 197.28 
L 253.49175 216.288 
L 234.48375 216.288 
L 234.48375 197.28 
" clip-path="url(#p5c9e1bbc8b)" style="fill: #005a32; stroke: #808080; stroke-width: 0.5"/>
    <path d="M 253.49175 197.28 
L 272.49975 197.28 
L 272.49975 216.288 
L 253.49175 216.288 
L 253.49175 197.28 
" clip-path="url(#p5c9e1bbc8b)" style="fill: #fbd7d4; stroke: #808080; stroke-width: 0.5"/>
    <path d="M 272.49975 197.28 
L 291.50775 197.28 
L 291.50775 216.288 
L 272.49975 216.288 
L 272.49975 197.28 
" clip-path="url(#p5c9e1bbc8b)" style="fill: #005a32; stroke: #808080; stroke-width: 0.5"/>
    <path d="M 291.50775 197.28 
L 310.51575 197.28 
L 310.51575 216.288 
L 291.50775 216.288 
L 291.50775 197.28 
" clip-path="url(#p5c9e1bbc8b)" style="fill: #005a32; stroke: #808080; stroke-width: 0.5"/>
    <path d="M 310.51575 197.28 
L 329.52375 197.28 
L 329.52375 216.288 
L 310.51575 216.288 
L 310.51575 197.28 
" clip-path="url(#p5c9e1bbc8b)" style="fill: #005a32; stroke: #808080; stroke-width: 0.5"/>
    <path d="M 329.52375 197.28 
L 348.53175 197.28 
L 348.53175 216.288 
L 329.52375 216.288 
L 329.52375 197.28 
" clip-path="url(#p5c9e1bbc8b)" style="fill: none; stroke: #808080; stroke-width: 0.5"/>
    <path d="M 348.53175 197.28 
L 367.53975 197.28 
L 367.53975 216.288 
L 348.53175 216.288 
L 348.53175 197.28 
" clip-path="url(#p5c9e1bbc8b)" style="fill: #005a32; stroke: #808080; stroke-width: 0.5"/>
    <path d="M 367.53975 197.28 
L 386.54775 197.28 
L 386.54775 216.288 
L 367.53975 216.288 
L 367.53975 197.28 
" clip-path="url(#p5c9e1bbc8b)" style="fill: #238b45; stroke: #808080; stroke-width: 0.5"/>
    <path d="M 386.54775 197.28 
L 405.55575 197.28 
L 405.55575 216.288 
L 386.54775 216.288 
L 386.54775 197.28 
" clip-path="url(#p5c9e1bbc8b)" style="fill: #005a32; stroke: #808080; stroke-width: 0.5"/>
    <path d="M 139.44375 216.288 
L 158.45175 216.288 
L 158.45175 235.296 
L 139.44375 235.296 
L 139.44375 216.288 
" clip-path="url(#p5c9e1bbc8b)" style="fill: #fbd7d4; stroke: #808080; stroke-width: 0.5"/>
    <path d="M 158.45175 216.288 
L 177.45975 216.288 
L 177.45975 235.296 
L 158.45175 235.296 
L 158.45175 216.288 
" clip-path="url(#p5c9e1bbc8b)" style="fill: #a1d99b; stroke: #808080; stroke-width: 0.5"/>
    <path d="M 177.45975 216.288 
L 196.46775 216.288 
L 196.46775 235.296 
L 177.45975 235.296 
L 177.45975 216.288 
" clip-path="url(#p5c9e1bbc8b)" style="fill: #005a32; stroke: #808080; stroke-width: 0.5"/>
    <path d="M 196.46775 216.288 
L 215.47575 216.288 
L 215.47575 235.296 
L 196.46775 235.296 
L 196.46775 216.288 
" clip-path="url(#p5c9e1bbc8b)" style="fill: #fbd7d4; stroke: #808080; stroke-width: 0.5"/>
    <path d="M 215.47575 216.288 
L 234.48375 216.288 
L 234.48375 235.296 
L 215.47575 235.296 
L 215.47575 216.288 
" clip-path="url(#p5c9e1bbc8b)" style="fill: #a1d99b; stroke: #808080; stroke-width: 0.5"/>
    <path d="M 234.48375 216.288 
L 253.49175 216.288 
L 253.49175 235.296 
L 234.48375 235.296 
L 234.48375 216.288 
" clip-path="url(#p5c9e1bbc8b)" style="fill: #005a32; stroke: #808080; stroke-width: 0.5"/>
    <path d="M 253.49175 216.288 
L 272.49975 216.288 
L 272.49975 235.296 
L 253.49175 235.296 
L 253.49175 216.288 
" clip-path="url(#p5c9e1bbc8b)" style="fill: #005a32; stroke: #808080; stroke-width: 0.5"/>
    <path d="M 272.49975 216.288 
L 291.50775 216.288 
L 291.50775 235.296 
L 272.49975 235.296 
L 272.49975 216.288 
" clip-path="url(#p5c9e1bbc8b)" style="fill: #005a32; stroke: #808080; stroke-width: 0.5"/>
    <path d="M 291.50775 216.288 
L 310.51575 216.288 
L 310.51575 235.296 
L 291.50775 235.296 
L 291.50775 216.288 
" clip-path="url(#p5c9e1bbc8b)" style="fill: #005a32; stroke: #808080; stroke-width: 0.5"/>
    <path d="M 310.51575 216.288 
L 329.52375 216.288 
L 329.52375 235.296 
L 310.51575 235.296 
L 310.51575 216.288 
" clip-path="url(#p5c9e1bbc8b)" style="fill: #005a32; stroke: #808080; stroke-width: 0.5"/>
    <path d="M 329.52375 216.288 
L 348.53175 216.288 
L 348.53175 235.296 
L 329.52375 235.296 
L 329.52375 216.288 
" clip-path="url(#p5c9e1bbc8b)" style="fill: #005a32; stroke: #808080; stroke-width: 0.5"/>
    <path d="M 348.53175 216.288 
L 367.53975 216.288 
L 367.53975 235.296 
L 348.53175 235.296 
L 348.53175 216.288 
" clip-path="url(#p5c9e1bbc8b)" style="fill: none; stroke: #808080; stroke-width: 0.5"/>
    <path d="M 367.53975 216.288 
L 386.54775 216.288 
L 386.54775 235.296 
L 367.53975 235.296 
L 367.53975 216.288 
" clip-path="url(#p5c9e1bbc8b)" style="fill: #fbd7d4; stroke: #808080; stroke-width: 0.5"/>
    <path d="M 386.54775 216.288 
L 405.55575 216.288 
L 405.55575 235.296 
L 386.54775 235.296 
L 386.54775 216.288 
" clip-path="url(#p5c9e1bbc8b)" style="fill: #005a32; stroke: #808080; stroke-width: 0.5"/>
    <path d="M 139.44375 235.296 
L 158.45175 235.296 
L 158.45175 254.304 
L 139.44375 254.304 
L 139.44375 235.296 
" clip-path="url(#p5c9e1bbc8b)" style="fill: #fbd7d4; stroke: #808080; stroke-width: 0.5"/>
    <path d="M 158.45175 235.296 
L 177.45975 235.296 
L 177.45975 254.304 
L 158.45175 254.304 
L 158.45175 235.296 
" clip-path="url(#p5c9e1bbc8b)" style="fill: #238b45; stroke: #808080; stroke-width: 0.5"/>
    <path d="M 177.45975 235.296 
L 196.46775 235.296 
L 196.46775 254.304 
L 177.45975 254.304 
L 177.45975 235.296 
" clip-path="url(#p5c9e1bbc8b)" style="fill: #238b45; stroke: #808080; stroke-width: 0.5"/>
    <path d="M 196.46775 235.296 
L 215.47575 235.296 
L 215.47575 254.304 
L 196.46775 254.304 
L 196.46775 235.296 
" clip-path="url(#p5c9e1bbc8b)" style="fill: #fbd7d4; stroke: #808080; stroke-width: 0.5"/>
    <path d="M 215.47575 235.296 
L 234.48375 235.296 
L 234.48375 254.304 
L 215.47575 254.304 
L 215.47575 235.296 
" clip-path="url(#p5c9e1bbc8b)" style="fill: #238b45; stroke: #808080; stroke-width: 0.5"/>
    <path d="M 234.48375 235.296 
L 253.49175 235.296 
L 253.49175 254.304 
L 234.48375 254.304 
L 234.48375 235.296 
" clip-path="url(#p5c9e1bbc8b)" style="fill: #238b45; stroke: #808080; stroke-width: 0.5"/>
    <path d="M 253.49175 235.296 
L 272.49975 235.296 
L 272.49975 254.304 
L 253.49175 254.304 
L 253.49175 235.296 
" clip-path="url(#p5c9e1bbc8b)" style="fill: #238b45; stroke: #808080; stroke-width: 0.5"/>
    <path d="M 272.49975 235.296 
L 291.50775 235.296 
L 291.50775 254.304 
L 272.49975 254.304 
L 272.49975 235.296 
" clip-path="url(#p5c9e1bbc8b)" style="fill: #fbd7d4; stroke: #808080; stroke-width: 0.5"/>
    <path d="M 291.50775 235.296 
L 310.51575 235.296 
L 310.51575 254.304 
L 291.50775 254.304 
L 291.50775 235.296 
" clip-path="url(#p5c9e1bbc8b)" style="fill: #238b45; stroke: #808080; stroke-width: 0.5"/>
    <path d="M 310.51575 235.296 
L 329.52375 235.296 
L 329.52375 254.304 
L 310.51575 254.304 
L 310.51575 235.296 
" clip-path="url(#p5c9e1bbc8b)" style="fill: #238b45; stroke: #808080; stroke-width: 0.5"/>
    <path d="M 329.52375 235.296 
L 348.53175 235.296 
L 348.53175 254.304 
L 329.52375 254.304 
L 329.52375 235.296 
" clip-path="url(#p5c9e1bbc8b)" style="fill: #238b45; stroke: #808080; stroke-width: 0.5"/>
    <path d="M 348.53175 235.296 
L 367.53975 235.296 
L 367.53975 254.304 
L 348.53175 254.304 
L 348.53175 235.296 
" clip-path="url(#p5c9e1bbc8b)" style="fill: #fbd7d4; stroke: #808080; stroke-width: 0.5"/>
    <path d="M 367.53975 235.296 
L 386.54775 235.296 
L 386.54775 254.304 
L 367.53975 254.304 
L 367.53975 235.296 
" clip-path="url(#p5c9e1bbc8b)" style="fill: none; stroke: #808080; stroke-width: 0.5"/>
    <path d="M 386.54775 235.296 
L 405.55575 235.296 
L 405.55575 254.304 
L 386.54775 254.304 
L 386.54775 235.296 
" clip-path="url(#p5c9e1bbc8b)" style="fill: #fbd7d4; stroke: #808080; stroke-width: 0.5"/>
    <path d="M 139.44375 254.304 
L 158.45175 254.304 
L 158.45175 273.312 
L 139.44375 273.312 
L 139.44375 254.304 
" clip-path="url(#p5c9e1bbc8b)" style="fill: #005a32; stroke: #808080; stroke-width: 0.5"/>
    <path d="M 158.45175 254.304 
L 177.45975 254.304 
L 177.45975 273.312 
L 158.45175 273.312 
L 158.45175 254.304 
" clip-path="url(#p5c9e1bbc8b)" style="fill: #005a32; stroke: #808080; stroke-width: 0.5"/>
    <path d="M 177.45975 254.304 
L 196.46775 254.304 
L 196.46775 273.312 
L 177.45975 273.312 
L 177.45975 254.304 
" clip-path="url(#p5c9e1bbc8b)" style="fill: #005a32; stroke: #808080; stroke-width: 0.5"/>
    <path d="M 196.46775 254.304 
L 215.47575 254.304 
L 215.47575 273.312 
L 196.46775 273.312 
L 196.46775 254.304 
" clip-path="url(#p5c9e1bbc8b)" style="fill: #005a32; stroke: #808080; stroke-width: 0.5"/>
    <path d="M 215.47575 254.304 
L 234.48375 254.304 
L 234.48375 273.312 
L 215.47575 273.312 
L 215.47575 254.304 
" clip-path="url(#p5c9e1bbc8b)" style="fill: #005a32; stroke: #808080; stroke-width: 0.5"/>
    <path d="M 234.48375 254.304 
L 253.49175 254.304 
L 253.49175 273.312 
L 234.48375 273.312 
L 234.48375 254.304 
" clip-path="url(#p5c9e1bbc8b)" style="fill: #005a32; stroke: #808080; stroke-width: 0.5"/>
    <path d="M 253.49175 254.304 
L 272.49975 254.304 
L 272.49975 273.312 
L 253.49175 273.312 
L 253.49175 254.304 
" clip-path="url(#p5c9e1bbc8b)" style="fill: #005a32; stroke: #808080; stroke-width: 0.5"/>
    <path d="M 272.49975 254.304 
L 291.50775 254.304 
L 291.50775 273.312 
L 272.49975 273.312 
L 272.49975 254.304 
" clip-path="url(#p5c9e1bbc8b)" style="fill: #fbd7d4; stroke: #808080; stroke-width: 0.5"/>
    <path d="M 291.50775 254.304 
L 310.51575 254.304 
L 310.51575 273.312 
L 291.50775 273.312 
L 291.50775 254.304 
" clip-path="url(#p5c9e1bbc8b)" style="fill: #005a32; stroke: #808080; stroke-width: 0.5"/>
    <path d="M 310.51575 254.304 
L 329.52375 254.304 
L 329.52375 273.312 
L 310.51575 273.312 
L 310.51575 254.304 
" clip-path="url(#p5c9e1bbc8b)" style="fill: #005a32; stroke: #808080; stroke-width: 0.5"/>
    <path d="M 329.52375 254.304 
L 348.53175 254.304 
L 348.53175 273.312 
L 329.52375 273.312 
L 329.52375 254.304 
" clip-path="url(#p5c9e1bbc8b)" style="fill: #005a32; stroke: #808080; stroke-width: 0.5"/>
    <path d="M 348.53175 254.304 
L 367.53975 254.304 
L 367.53975 273.312 
L 348.53175 273.312 
L 348.53175 254.304 
" clip-path="url(#p5c9e1bbc8b)" style="fill: #005a32; stroke: #808080; stroke-width: 0.5"/>
    <path d="M 367.53975 254.304 
L 386.54775 254.304 
L 386.54775 273.312 
L 367.53975 273.312 
L 367.53975 254.304 
" clip-path="url(#p5c9e1bbc8b)" style="fill: #fbd7d4; stroke: #808080; stroke-width: 0.5"/>
    <path d="M 386.54775 254.304 
L 405.55575 254.304 
L 405.55575 273.312 
L 386.54775 273.312 
L 386.54775 254.304 
" clip-path="url(#p5c9e1bbc8b)" style="fill: none; stroke: #808080; stroke-width: 0.5"/>
   </g>
   <g id="matplotlib.axis_1">
    <g id="xtick_1">
     <g id="line2d_1">
      <defs>
       <path id="mc2f1f8733b" d="M 0 0 
L 0 3.5 
" style="stroke: #000000; stroke-width: 0.8"/>
      </defs>
      <g>
       <use xlink:href="#mc2f1f8733b" x="148.94775" y="273.312" style="stroke: #000000; stroke-width: 0.8"/>
      </g>
     </g>
     <g id="text_1">
      <!-- afl -->
      <g transform="translate(141.349312 280.312)rotate(-270)scale(0.1 -0.1)">
       <defs>
        <path id="DejaVuSans-61" d="M 2194 1759 
Q 1497 1759 1228 1600 
Q 959 1441 959 1056 
Q 959 750 1161 570 
Q 1363 391 1709 391 
Q 2188 391 2477 730 
Q 2766 1069 2766 1631 
L 2766 1759 
L 2194 1759 
z
M 3341 1997 
L 3341 0 
L 2766 0 
L 2766 531 
Q 2569 213 2275 61 
Q 1981 -91 1556 -91 
Q 1019 -91 701 211 
Q 384 513 384 1019 
Q 384 1609 779 1909 
Q 1175 2209 1959 2209 
L 2766 2209 
L 2766 2266 
Q 2766 2663 2505 2880 
Q 2244 3097 1772 3097 
Q 1472 3097 1187 3025 
Q 903 2953 641 2809 
L 641 3341 
Q 956 3463 1253 3523 
Q 1550 3584 1831 3584 
Q 2591 3584 2966 3190 
Q 3341 2797 3341 1997 
z
" transform="scale(0.015625)"/>
        <path id="DejaVuSans-66" d="M 2375 4863 
L 2375 4384 
L 1825 4384 
Q 1516 4384 1395 4259 
Q 1275 4134 1275 3809 
L 1275 3500 
L 2222 3500 
L 2222 3053 
L 1275 3053 
L 1275 0 
L 697 0 
L 697 3053 
L 147 3053 
L 147 3500 
L 697 3500 
L 697 3744 
Q 697 4328 969 4595 
Q 1241 4863 1831 4863 
L 2375 4863 
z
" transform="scale(0.015625)"/>
        <path id="DejaVuSans-6c" d="M 603 4863 
L 1178 4863 
L 1178 0 
L 603 0 
L 603 4863 
z
" transform="scale(0.015625)"/>
       </defs>
       <use xlink:href="#DejaVuSans-61"/>
       <use xlink:href="#DejaVuSans-66" x="61.279297"/>
       <use xlink:href="#DejaVuSans-6c" x="96.484375"/>
      </g>
     </g>
    </g>
    <g id="xtick_2">
     <g id="line2d_2">
      <g>
       <use xlink:href="#mc2f1f8733b" x="167.95575" y="273.312" style="stroke: #000000; stroke-width: 0.8"/>
      </g>
     </g>
     <g id="text_2">
      <!-- aflfast -->
      <g transform="translate(160.357313 280.312)rotate(-270)scale(0.1 -0.1)">
       <defs>
        <path id="DejaVuSans-73" d="M 2834 3397 
L 2834 2853 
Q 2591 2978 2328 3040 
Q 2066 3103 1784 3103 
Q 1356 3103 1142 2972 
Q 928 2841 928 2578 
Q 928 2378 1081 2264 
Q 1234 2150 1697 2047 
L 1894 2003 
Q 2506 1872 2764 1633 
Q 3022 1394 3022 966 
Q 3022 478 2636 193 
Q 2250 -91 1575 -91 
Q 1294 -91 989 -36 
Q 684 19 347 128 
L 347 722 
Q 666 556 975 473 
Q 1284 391 1588 391 
Q 1994 391 2212 530 
Q 2431 669 2431 922 
Q 2431 1156 2273 1281 
Q 2116 1406 1581 1522 
L 1381 1569 
Q 847 1681 609 1914 
Q 372 2147 372 2553 
Q 372 3047 722 3315 
Q 1072 3584 1716 3584 
Q 2034 3584 2315 3537 
Q 2597 3491 2834 3397 
z
" transform="scale(0.015625)"/>
        <path id="DejaVuSans-74" d="M 1172 4494 
L 1172 3500 
L 2356 3500 
L 2356 3053 
L 1172 3053 
L 1172 1153 
Q 1172 725 1289 603 
Q 1406 481 1766 481 
L 2356 481 
L 2356 0 
L 1766 0 
Q 1100 0 847 248 
Q 594 497 594 1153 
L 594 3053 
L 172 3053 
L 172 3500 
L 594 3500 
L 594 4494 
L 1172 4494 
z
" transform="scale(0.015625)"/>
       </defs>
       <use xlink:href="#DejaVuSans-61"/>
       <use xlink:href="#DejaVuSans-66" x="61.279297"/>
       <use xlink:href="#DejaVuSans-6c" x="96.484375"/>
       <use xlink:href="#DejaVuSans-66" x="124.267578"/>
       <use xlink:href="#DejaVuSans-61" x="159.472656"/>
       <use xlink:href="#DejaVuSans-73" x="220.751953"/>
       <use xlink:href="#DejaVuSans-74" x="272.851562"/>
      </g>
     </g>
    </g>
    <g id="xtick_3">
     <g id="line2d_3">
      <g>
       <use xlink:href="#mc2f1f8733b" x="186.96375" y="273.312" style="stroke: #000000; stroke-width: 0.8"/>
      </g>
     </g>
     <g id="text_3">
      <!-- aflplusplus -->
      <g transform="translate(179.365312 280.312)rotate(-270)scale(0.1 -0.1)">
       <defs>
        <path id="DejaVuSans-70" d="M 1159 525 
L 1159 -1331 
L 581 -1331 
L 581 3500 
L 1159 3500 
L 1159 2969 
Q 1341 3281 1617 3432 
Q 1894 3584 2278 3584 
Q 2916 3584 3314 3078 
Q 3713 2572 3713 1747 
Q 3713 922 3314 415 
Q 2916 -91 2278 -91 
Q 1894 -91 1617 61 
Q 1341 213 1159 525 
z
M 3116 1747 
Q 3116 2381 2855 2742 
Q 2594 3103 2138 3103 
Q 1681 3103 1420 2742 
Q 1159 2381 1159 1747 
Q 1159 1113 1420 752 
Q 1681 391 2138 391 
Q 2594 391 2855 752 
Q 3116 1113 3116 1747 
z
" transform="scale(0.015625)"/>
        <path id="DejaVuSans-75" d="M 544 1381 
L 544 3500 
L 1119 3500 
L 1119 1403 
Q 1119 906 1312 657 
Q 1506 409 1894 409 
Q 2359 409 2629 706 
Q 2900 1003 2900 1516 
L 2900 3500 
L 3475 3500 
L 3475 0 
L 2900 0 
L 2900 538 
Q 2691 219 2414 64 
Q 2138 -91 1772 -91 
Q 1169 -91 856 284 
Q 544 659 544 1381 
z
M 1991 3584 
L 1991 3584 
z
" transform="scale(0.015625)"/>
       </defs>
       <use xlink:href="#DejaVuSans-61"/>
       <use xlink:href="#DejaVuSans-66" x="61.279297"/>
       <use xlink:href="#DejaVuSans-6c" x="96.484375"/>
       <use xlink:href="#DejaVuSans-70" x="124.267578"/>
       <use xlink:href="#DejaVuSans-6c" x="187.744141"/>
       <use xlink:href="#DejaVuSans-75" x="215.527344"/>
       <use xlink:href="#DejaVuSans-73" x="278.90625"/>
       <use xlink:href="#DejaVuSans-70" x="331.005859"/>
       <use xlink:href="#DejaVuSans-6c" x="394.482422"/>
       <use xlink:href="#DejaVuSans-75" x="422.265625"/>
       <use xlink:href="#DejaVuSans-73" x="485.644531"/>
      </g>
     </g>
    </g>
    <g id="xtick_4">
     <g id="line2d_4">
      <g>
       <use xlink:href="#mc2f1f8733b" x="205.97175" y="273.312" style="stroke: #000000; stroke-width: 0.8"/>
      </g>
     </g>
     <g id="text_4">
      <!-- aflsmart -->
      <g transform="translate(198.373312 280.312)rotate(-270)scale(0.1 -0.1)">
       <defs>
        <path id="DejaVuSans-6d" d="M 3328 2828 
Q 3544 3216 3844 3400 
Q 4144 3584 4550 3584 
Q 5097 3584 5394 3201 
Q 5691 2819 5691 2113 
L 5691 0 
L 5113 0 
L 5113 2094 
Q 5113 2597 4934 2840 
Q 4756 3084 4391 3084 
Q 3944 3084 3684 2787 
Q 3425 2491 3425 1978 
L 3425 0 
L 2847 0 
L 2847 2094 
Q 2847 2600 2669 2842 
Q 2491 3084 2119 3084 
Q 1678 3084 1418 2786 
Q 1159 2488 1159 1978 
L 1159 0 
L 581 0 
L 581 3500 
L 1159 3500 
L 1159 2956 
Q 1356 3278 1631 3431 
Q 1906 3584 2284 3584 
Q 2666 3584 2933 3390 
Q 3200 3197 3328 2828 
z
" transform="scale(0.015625)"/>
        <path id="DejaVuSans-72" d="M 2631 2963 
Q 2534 3019 2420 3045 
Q 2306 3072 2169 3072 
Q 1681 3072 1420 2755 
Q 1159 2438 1159 1844 
L 1159 0 
L 581 0 
L 581 3500 
L 1159 3500 
L 1159 2956 
Q 1341 3275 1631 3429 
Q 1922 3584 2338 3584 
Q 2397 3584 2469 3576 
Q 2541 3569 2628 3553 
L 2631 2963 
z
" transform="scale(0.015625)"/>
       </defs>
       <use xlink:href="#DejaVuSans-61"/>
       <use xlink:href="#DejaVuSans-66" x="61.279297"/>
       <use xlink:href="#DejaVuSans-6c" x="96.484375"/>
       <use xlink:href="#DejaVuSans-73" x="124.267578"/>
       <use xlink:href="#DejaVuSans-6d" x="176.367188"/>
       <use xlink:href="#DejaVuSans-61" x="273.779297"/>
       <use xlink:href="#DejaVuSans-72" x="335.058594"/>
       <use xlink:href="#DejaVuSans-74" x="376.171875"/>
      </g>
     </g>
    </g>
    <g id="xtick_5">
     <g id="line2d_5">
      <g>
       <use xlink:href="#mc2f1f8733b" x="224.97975" y="273.312" style="stroke: #000000; stroke-width: 0.8"/>
      </g>
     </g>
     <g id="text_5">
      <!-- eclipser -->
      <g transform="translate(217.381312 280.312)rotate(-270)scale(0.1 -0.1)">
       <defs>
        <path id="DejaVuSans-65" d="M 3597 1894 
L 3597 1613 
L 953 1613 
Q 991 1019 1311 708 
Q 1631 397 2203 397 
Q 2534 397 2845 478 
Q 3156 559 3463 722 
L 3463 178 
Q 3153 47 2828 -22 
Q 2503 -91 2169 -91 
Q 1331 -91 842 396 
Q 353 884 353 1716 
Q 353 2575 817 3079 
Q 1281 3584 2069 3584 
Q 2775 3584 3186 3129 
Q 3597 2675 3597 1894 
z
M 3022 2063 
Q 3016 2534 2758 2815 
Q 2500 3097 2075 3097 
Q 1594 3097 1305 2825 
Q 1016 2553 972 2059 
L 3022 2063 
z
" transform="scale(0.015625)"/>
        <path id="DejaVuSans-63" d="M 3122 3366 
L 3122 2828 
Q 2878 2963 2633 3030 
Q 2388 3097 2138 3097 
Q 1578 3097 1268 2742 
Q 959 2388 959 1747 
Q 959 1106 1268 751 
Q 1578 397 2138 397 
Q 2388 397 2633 464 
Q 2878 531 3122 666 
L 3122 134 
Q 2881 22 2623 -34 
Q 2366 -91 2075 -91 
Q 1284 -91 818 406 
Q 353 903 353 1747 
Q 353 2603 823 3093 
Q 1294 3584 2113 3584 
Q 2378 3584 2631 3529 
Q 2884 3475 3122 3366 
z
" transform="scale(0.015625)"/>
        <path id="DejaVuSans-69" d="M 603 3500 
L 1178 3500 
L 1178 0 
L 603 0 
L 603 3500 
z
M 603 4863 
L 1178 4863 
L 1178 4134 
L 603 4134 
L 603 4863 
z
" transform="scale(0.015625)"/>
       </defs>
       <use xlink:href="#DejaVuSans-65"/>
       <use xlink:href="#DejaVuSans-63" x="61.523438"/>
       <use xlink:href="#DejaVuSans-6c" x="116.503906"/>
       <use xlink:href="#DejaVuSans-69" x="144.287109"/>
       <use xlink:href="#DejaVuSans-70" x="172.070312"/>
       <use xlink:href="#DejaVuSans-73" x="235.546875"/>
       <use xlink:href="#DejaVuSans-65" x="287.646484"/>
       <use xlink:href="#DejaVuSans-72" x="349.169922"/>
      </g>
     </g>
    </g>
    <g id="xtick_6">
     <g id="line2d_6">
      <g>
       <use xlink:href="#mc2f1f8733b" x="243.98775" y="273.312" style="stroke: #000000; stroke-width: 0.8"/>
      </g>
     </g>
     <g id="text_6">
      <!-- entropic -->
      <g transform="translate(236.389312 280.312)rotate(-270)scale(0.1 -0.1)">
       <defs>
        <path id="DejaVuSans-6e" d="M 3513 2113 
L 3513 0 
L 2938 0 
L 2938 2094 
Q 2938 2591 2744 2837 
Q 2550 3084 2163 3084 
Q 1697 3084 1428 2787 
Q 1159 2491 1159 1978 
L 1159 0 
L 581 0 
L 581 3500 
L 1159 3500 
L 1159 2956 
Q 1366 3272 1645 3428 
Q 1925 3584 2291 3584 
Q 2894 3584 3203 3211 
Q 3513 2838 3513 2113 
z
" transform="scale(0.015625)"/>
        <path id="DejaVuSans-6f" d="M 1959 3097 
Q 1497 3097 1228 2736 
Q 959 2375 959 1747 
Q 959 1119 1226 758 
Q 1494 397 1959 397 
Q 2419 397 2687 759 
Q 2956 1122 2956 1747 
Q 2956 2369 2687 2733 
Q 2419 3097 1959 3097 
z
M 1959 3584 
Q 2709 3584 3137 3096 
Q 3566 2609 3566 1747 
Q 3566 888 3137 398 
Q 2709 -91 1959 -91 
Q 1206 -91 779 398 
Q 353 888 353 1747 
Q 353 2609 779 3096 
Q 1206 3584 1959 3584 
z
" transform="scale(0.015625)"/>
       </defs>
       <use xlink:href="#DejaVuSans-65"/>
       <use xlink:href="#DejaVuSans-6e" x="61.523438"/>
       <use xlink:href="#DejaVuSans-74" x="124.902344"/>
       <use xlink:href="#DejaVuSans-72" x="164.111328"/>
       <use xlink:href="#DejaVuSans-6f" x="202.974609"/>
       <use xlink:href="#DejaVuSans-70" x="264.15625"/>
       <use xlink:href="#DejaVuSans-69" x="327.632812"/>
       <use xlink:href="#DejaVuSans-63" x="355.416016"/>
      </g>
     </g>
    </g>
    <g id="xtick_7">
     <g id="line2d_7">
      <g>
       <use xlink:href="#mc2f1f8733b" x="262.99575" y="273.312" style="stroke: #000000; stroke-width: 0.8"/>
      </g>
     </g>
     <g id="text_7">
      <!-- fairfuzz -->
      <g transform="translate(255.397312 280.312)rotate(-270)scale(0.1 -0.1)">
       <defs>
        <path id="DejaVuSans-7a" d="M 353 3500 
L 3084 3500 
L 3084 2975 
L 922 459 
L 3084 459 
L 3084 0 
L 275 0 
L 275 525 
L 2438 3041 
L 353 3041 
L 353 3500 
z
" transform="scale(0.015625)"/>
       </defs>
       <use xlink:href="#DejaVuSans-66"/>
       <use xlink:href="#DejaVuSans-61" x="35.205078"/>
       <use xlink:href="#DejaVuSans-69" x="96.484375"/>
       <use xlink:href="#DejaVuSans-72" x="124.267578"/>
       <use xlink:href="#DejaVuSans-66" x="165.380859"/>
       <use xlink:href="#DejaVuSans-75" x="200.585938"/>
       <use xlink:href="#DejaVuSans-7a" x="263.964844"/>
       <use xlink:href="#DejaVuSans-7a" x="316.455078"/>
      </g>
     </g>
    </g>
    <g id="xtick_8">
     <g id="line2d_8">
      <g>
       <use xlink:href="#mc2f1f8733b" x="282.00375" y="273.312" style="stroke: #000000; stroke-width: 0.8"/>
      </g>
     </g>
     <g id="text_8">
      <!-- fuzzolic_aflplusplus_z3 -->
      <g transform="translate(274.405312 280.312)rotate(-270)scale(0.1 -0.1)">
       <defs>
        <path id="DejaVuSans-5f" d="M 3263 -1063 
L 3263 -1509 
L -63 -1509 
L -63 -1063 
L 3263 -1063 
z
" transform="scale(0.015625)"/>
        <path id="DejaVuSans-33" d="M 2597 2516 
Q 3050 2419 3304 2112 
Q 3559 1806 3559 1356 
Q 3559 666 3084 287 
Q 2609 -91 1734 -91 
Q 1441 -91 1130 -33 
Q 819 25 488 141 
L 488 750 
Q 750 597 1062 519 
Q 1375 441 1716 441 
Q 2309 441 2620 675 
Q 2931 909 2931 1356 
Q 2931 1769 2642 2001 
Q 2353 2234 1838 2234 
L 1294 2234 
L 1294 2753 
L 1863 2753 
Q 2328 2753 2575 2939 
Q 2822 3125 2822 3475 
Q 2822 3834 2567 4026 
Q 2313 4219 1838 4219 
Q 1578 4219 1281 4162 
Q 984 4106 628 3988 
L 628 4550 
Q 988 4650 1302 4700 
Q 1616 4750 1894 4750 
Q 2613 4750 3031 4423 
Q 3450 4097 3450 3541 
Q 3450 3153 3228 2886 
Q 3006 2619 2597 2516 
z
" transform="scale(0.015625)"/>
       </defs>
       <use xlink:href="#DejaVuSans-66"/>
       <use xlink:href="#DejaVuSans-75" x="35.205078"/>
       <use xlink:href="#DejaVuSans-7a" x="98.583984"/>
       <use xlink:href="#DejaVuSans-7a" x="151.074219"/>
       <use xlink:href="#DejaVuSans-6f" x="203.564453"/>
       <use xlink:href="#DejaVuSans-6c" x="264.746094"/>
       <use xlink:href="#DejaVuSans-69" x="292.529297"/>
       <use xlink:href="#DejaVuSans-63" x="320.3125"/>
       <use xlink:href="#DejaVuSans-5f" x="375.292969"/>
       <use xlink:href="#DejaVuSans-61" x="425.292969"/>
       <use xlink:href="#DejaVuSans-66" x="486.572266"/>
       <use xlink:href="#DejaVuSans-6c" x="521.777344"/>
       <use xlink:href="#DejaVuSans-70" x="549.560547"/>
       <use xlink:href="#DejaVuSans-6c" x="613.037109"/>
       <use xlink:href="#DejaVuSans-75" x="640.820312"/>
       <use xlink:href="#DejaVuSans-73" x="704.199219"/>
       <use xlink:href="#DejaVuSans-70" x="756.298828"/>
       <use xlink:href="#DejaVuSans-6c" x="819.775391"/>
       <use xlink:href="#DejaVuSans-75" x="847.558594"/>
       <use xlink:href="#DejaVuSans-73" x="910.9375"/>
       <use xlink:href="#DejaVuSans-5f" x="963.037109"/>
       <use xlink:href="#DejaVuSans-7a" x="1013.037109"/>
       <use xlink:href="#DejaVuSans-33" x="1065.527344"/>
      </g>
     </g>
    </g>
    <g id="xtick_9">
     <g id="line2d_9">
      <g>
       <use xlink:href="#mc2f1f8733b" x="301.01175" y="273.312" style="stroke: #000000; stroke-width: 0.8"/>
      </g>
     </g>
     <g id="text_9">
      <!-- honggfuzz -->
      <g transform="translate(293.413312 280.312)rotate(-270)scale(0.1 -0.1)">
       <defs>
        <path id="DejaVuSans-68" d="M 3513 2113 
L 3513 0 
L 2938 0 
L 2938 2094 
Q 2938 2591 2744 2837 
Q 2550 3084 2163 3084 
Q 1697 3084 1428 2787 
Q 1159 2491 1159 1978 
L 1159 0 
L 581 0 
L 581 4863 
L 1159 4863 
L 1159 2956 
Q 1366 3272 1645 3428 
Q 1925 3584 2291 3584 
Q 2894 3584 3203 3211 
Q 3513 2838 3513 2113 
z
" transform="scale(0.015625)"/>
        <path id="DejaVuSans-67" d="M 2906 1791 
Q 2906 2416 2648 2759 
Q 2391 3103 1925 3103 
Q 1463 3103 1205 2759 
Q 947 2416 947 1791 
Q 947 1169 1205 825 
Q 1463 481 1925 481 
Q 2391 481 2648 825 
Q 2906 1169 2906 1791 
z
M 3481 434 
Q 3481 -459 3084 -895 
Q 2688 -1331 1869 -1331 
Q 1566 -1331 1297 -1286 
Q 1028 -1241 775 -1147 
L 775 -588 
Q 1028 -725 1275 -790 
Q 1522 -856 1778 -856 
Q 2344 -856 2625 -561 
Q 2906 -266 2906 331 
L 2906 616 
Q 2728 306 2450 153 
Q 2172 0 1784 0 
Q 1141 0 747 490 
Q 353 981 353 1791 
Q 353 2603 747 3093 
Q 1141 3584 1784 3584 
Q 2172 3584 2450 3431 
Q 2728 3278 2906 2969 
L 2906 3500 
L 3481 3500 
L 3481 434 
z
" transform="scale(0.015625)"/>
       </defs>
       <use xlink:href="#DejaVuSans-68"/>
       <use xlink:href="#DejaVuSans-6f" x="63.378906"/>
       <use xlink:href="#DejaVuSans-6e" x="124.560547"/>
       <use xlink:href="#DejaVuSans-67" x="187.939453"/>
       <use xlink:href="#DejaVuSans-67" x="251.416016"/>
       <use xlink:href="#DejaVuSans-66" x="314.892578"/>
       <use xlink:href="#DejaVuSans-75" x="350.097656"/>
       <use xlink:href="#DejaVuSans-7a" x="413.476562"/>
       <use xlink:href="#DejaVuSans-7a" x="465.966797"/>
      </g>
     </g>
    </g>
    <g id="xtick_10">
     <g id="line2d_10">
      <g>
       <use xlink:href="#mc2f1f8733b" x="320.01975" y="273.312" style="stroke: #000000; stroke-width: 0.8"/>
      </g>
     </g>
     <g id="text_10">
      <!-- lafintel -->
      <g transform="translate(312.421312 280.312)rotate(-270)scale(0.1 -0.1)">
       <use xlink:href="#DejaVuSans-6c"/>
       <use xlink:href="#DejaVuSans-61" x="27.783203"/>
       <use xlink:href="#DejaVuSans-66" x="89.0625"/>
       <use xlink:href="#DejaVuSans-69" x="124.267578"/>
       <use xlink:href="#DejaVuSans-6e" x="152.050781"/>
       <use xlink:href="#DejaVuSans-74" x="215.429688"/>
       <use xlink:href="#DejaVuSans-65" x="254.638672"/>
       <use xlink:href="#DejaVuSans-6c" x="316.162109"/>
      </g>
     </g>
    </g>
    <g id="xtick_11">
     <g id="line2d_11">
      <g>
       <use xlink:href="#mc2f1f8733b" x="339.02775" y="273.312" style="stroke: #000000; stroke-width: 0.8"/>
      </g>
     </g>
     <g id="text_11">
      <!-- libfuzzer -->
      <g transform="translate(331.429312 280.312)rotate(-270)scale(0.1 -0.1)">
       <defs>
        <path id="DejaVuSans-62" d="M 3116 1747 
Q 3116 2381 2855 2742 
Q 2594 3103 2138 3103 
Q 1681 3103 1420 2742 
Q 1159 2381 1159 1747 
Q 1159 1113 1420 752 
Q 1681 391 2138 391 
Q 2594 391 2855 752 
Q 3116 1113 3116 1747 
z
M 1159 2969 
Q 1341 3281 1617 3432 
Q 1894 3584 2278 3584 
Q 2916 3584 3314 3078 
Q 3713 2572 3713 1747 
Q 3713 922 3314 415 
Q 2916 -91 2278 -91 
Q 1894 -91 1617 61 
Q 1341 213 1159 525 
L 1159 0 
L 581 0 
L 581 4863 
L 1159 4863 
L 1159 2969 
z
" transform="scale(0.015625)"/>
       </defs>
       <use xlink:href="#DejaVuSans-6c"/>
       <use xlink:href="#DejaVuSans-69" x="27.783203"/>
       <use xlink:href="#DejaVuSans-62" x="55.566406"/>
       <use xlink:href="#DejaVuSans-66" x="119.042969"/>
       <use xlink:href="#DejaVuSans-75" x="154.248047"/>
       <use xlink:href="#DejaVuSans-7a" x="217.626953"/>
       <use xlink:href="#DejaVuSans-7a" x="270.117188"/>
       <use xlink:href="#DejaVuSans-65" x="322.607422"/>
       <use xlink:href="#DejaVuSans-72" x="384.130859"/>
      </g>
     </g>
    </g>
    <g id="xtick_12">
     <g id="line2d_12">
      <g>
       <use xlink:href="#mc2f1f8733b" x="358.03575" y="273.312" style="stroke: #000000; stroke-width: 0.8"/>
      </g>
     </g>
     <g id="text_12">
      <!-- mopt -->
      <g transform="translate(350.437312 280.312)rotate(-270)scale(0.1 -0.1)">
       <use xlink:href="#DejaVuSans-6d"/>
       <use xlink:href="#DejaVuSans-6f" x="97.412109"/>
       <use xlink:href="#DejaVuSans-70" x="158.59375"/>
       <use xlink:href="#DejaVuSans-74" x="222.070312"/>
      </g>
     </g>
    </g>
    <g id="xtick_13">
     <g id="line2d_13">
      <g>
       <use xlink:href="#mc2f1f8733b" x="377.04375" y="273.312" style="stroke: #000000; stroke-width: 0.8"/>
      </g>
     </g>
     <g id="text_13">
      <!-- symcc_aflplusplus_single -->
      <g transform="translate(369.445312 280.312)rotate(-270)scale(0.1 -0.1)">
       <defs>
        <path id="DejaVuSans-79" d="M 2059 -325 
Q 1816 -950 1584 -1140 
Q 1353 -1331 966 -1331 
L 506 -1331 
L 506 -850 
L 844 -850 
Q 1081 -850 1212 -737 
Q 1344 -625 1503 -206 
L 1606 56 
L 191 3500 
L 800 3500 
L 1894 763 
L 2988 3500 
L 3597 3500 
L 2059 -325 
z
" transform="scale(0.015625)"/>
       </defs>
       <use xlink:href="#DejaVuSans-73"/>
       <use xlink:href="#DejaVuSans-79" x="52.099609"/>
       <use xlink:href="#DejaVuSans-6d" x="111.279297"/>
       <use xlink:href="#DejaVuSans-63" x="208.691406"/>
       <use xlink:href="#DejaVuSans-63" x="263.671875"/>
       <use xlink:href="#DejaVuSans-5f" x="318.652344"/>
       <use xlink:href="#DejaVuSans-61" x="368.652344"/>
       <use xlink:href="#DejaVuSans-66" x="429.931641"/>
       <use xlink:href="#DejaVuSans-6c" x="465.136719"/>
       <use xlink:href="#DejaVuSans-70" x="492.919922"/>
       <use xlink:href="#DejaVuSans-6c" x="556.396484"/>
       <use xlink:href="#DejaVuSans-75" x="584.179688"/>
       <use xlink:href="#DejaVuSans-73" x="647.558594"/>
       <use xlink:href="#DejaVuSans-70" x="699.658203"/>
       <use xlink:href="#DejaVuSans-6c" x="763.134766"/>
       <use xlink:href="#DejaVuSans-75" x="790.917969"/>
       <use xlink:href="#DejaVuSans-73" x="854.296875"/>
       <use xlink:href="#DejaVuSans-5f" x="906.396484"/>
       <use xlink:href="#DejaVuSans-73" x="956.396484"/>
       <use xlink:href="#DejaVuSans-69" x="1008.496094"/>
       <use xlink:href="#DejaVuSans-6e" x="1036.279297"/>
       <use xlink:href="#DejaVuSans-67" x="1099.658203"/>
       <use xlink:href="#DejaVuSans-6c" x="1163.134766"/>
       <use xlink:href="#DejaVuSans-65" x="1190.917969"/>
      </g>
     </g>
    </g>
    <g id="xtick_14">
     <g id="line2d_14">
      <g>
       <use xlink:href="#mc2f1f8733b" x="396.05175" y="273.312" style="stroke: #000000; stroke-width: 0.8"/>
      </g>
     </g>
     <g id="text_14">
      <!-- symqemu_aflplusplus -->
      <g transform="translate(388.453312 280.312)rotate(-270)scale(0.1 -0.1)">
       <defs>
        <path id="DejaVuSans-71" d="M 947 1747 
Q 947 1113 1208 752 
Q 1469 391 1925 391 
Q 2381 391 2643 752 
Q 2906 1113 2906 1747 
Q 2906 2381 2643 2742 
Q 2381 3103 1925 3103 
Q 1469 3103 1208 2742 
Q 947 2381 947 1747 
z
M 2906 525 
Q 2725 213 2448 61 
Q 2172 -91 1784 -91 
Q 1150 -91 751 415 
Q 353 922 353 1747 
Q 353 2572 751 3078 
Q 1150 3584 1784 3584 
Q 2172 3584 2448 3432 
Q 2725 3281 2906 2969 
L 2906 3500 
L 3481 3500 
L 3481 -1331 
L 2906 -1331 
L 2906 525 
z
" transform="scale(0.015625)"/>
       </defs>
       <use xlink:href="#DejaVuSans-73"/>
       <use xlink:href="#DejaVuSans-79" x="52.099609"/>
       <use xlink:href="#DejaVuSans-6d" x="111.279297"/>
       <use xlink:href="#DejaVuSans-71" x="208.691406"/>
       <use xlink:href="#DejaVuSans-65" x="272.167969"/>
       <use xlink:href="#DejaVuSans-6d" x="333.691406"/>
       <use xlink:href="#DejaVuSans-75" x="431.103516"/>
       <use xlink:href="#DejaVuSans-5f" x="494.482422"/>
       <use xlink:href="#DejaVuSans-61" x="544.482422"/>
       <use xlink:href="#DejaVuSans-66" x="605.761719"/>
       <use xlink:href="#DejaVuSans-6c" x="640.966797"/>
       <use xlink:href="#DejaVuSans-70" x="668.75"/>
       <use xlink:href="#DejaVuSans-6c" x="732.226562"/>
       <use xlink:href="#DejaVuSans-75" x="760.009766"/>
       <use xlink:href="#DejaVuSans-73" x="823.388672"/>
       <use xlink:href="#DejaVuSans-70" x="875.488281"/>
       <use xlink:href="#DejaVuSans-6c" x="938.964844"/>
       <use xlink:href="#DejaVuSans-75" x="966.748047"/>
       <use xlink:href="#DejaVuSans-73" x="1030.126953"/>
      </g>
     </g>
    </g>
   </g>
   <g id="matplotlib.axis_2">
    <g id="ytick_1">
     <g id="line2d_15">
      <defs>
       <path id="m1c66748923" d="M 0 0 
L -3.5 0 
" style="stroke: #000000; stroke-width: 0.8"/>
      </defs>
      <g>
       <use xlink:href="#m1c66748923" x="139.44375" y="16.704" style="stroke: #000000; stroke-width: 0.8"/>
      </g>
     </g>
     <g id="text_15">
      <!-- afl -->
      <g transform="translate(120.017187 20.503219)scale(0.1 -0.1)">
       <use xlink:href="#DejaVuSans-61"/>
       <use xlink:href="#DejaVuSans-66" x="61.279297"/>
       <use xlink:href="#DejaVuSans-6c" x="96.484375"/>
      </g>
     </g>
    </g>
    <g id="ytick_2">
     <g id="line2d_16">
      <g>
       <use xlink:href="#m1c66748923" x="139.44375" y="35.712" style="stroke: #000000; stroke-width: 0.8"/>
      </g>
     </g>
     <g id="text_16">
      <!-- aflfast -->
      <g transform="translate(101.239062 39.511219)scale(0.1 -0.1)">
       <use xlink:href="#DejaVuSans-61"/>
       <use xlink:href="#DejaVuSans-66" x="61.279297"/>
       <use xlink:href="#DejaVuSans-6c" x="96.484375"/>
       <use xlink:href="#DejaVuSans-66" x="124.267578"/>
       <use xlink:href="#DejaVuSans-61" x="159.472656"/>
       <use xlink:href="#DejaVuSans-73" x="220.751953"/>
       <use xlink:href="#DejaVuSans-74" x="272.851562"/>
      </g>
     </g>
    </g>
    <g id="ytick_3">
     <g id="line2d_17">
      <g>
       <use xlink:href="#m1c66748923" x="139.44375" y="54.72" style="stroke: #000000; stroke-width: 0.8"/>
      </g>
     </g>
     <g id="text_17">
      <!-- aflplusplus -->
      <g transform="translate(78.670312 58.519219)scale(0.1 -0.1)">
       <use xlink:href="#DejaVuSans-61"/>
       <use xlink:href="#DejaVuSans-66" x="61.279297"/>
       <use xlink:href="#DejaVuSans-6c" x="96.484375"/>
       <use xlink:href="#DejaVuSans-70" x="124.267578"/>
       <use xlink:href="#DejaVuSans-6c" x="187.744141"/>
       <use xlink:href="#DejaVuSans-75" x="215.527344"/>
       <use xlink:href="#DejaVuSans-73" x="278.90625"/>
       <use xlink:href="#DejaVuSans-70" x="331.005859"/>
       <use xlink:href="#DejaVuSans-6c" x="394.482422"/>
       <use xlink:href="#DejaVuSans-75" x="422.265625"/>
       <use xlink:href="#DejaVuSans-73" x="485.644531"/>
      </g>
     </g>
    </g>
    <g id="ytick_4">
     <g id="line2d_18">
      <g>
       <use xlink:href="#m1c66748923" x="139.44375" y="73.728" style="stroke: #000000; stroke-width: 0.8"/>
      </g>
     </g>
     <g id="text_18">
      <!-- aflsmart -->
      <g transform="translate(90.907812 77.527219)scale(0.1 -0.1)">
       <use xlink:href="#DejaVuSans-61"/>
       <use xlink:href="#DejaVuSans-66" x="61.279297"/>
       <use xlink:href="#DejaVuSans-6c" x="96.484375"/>
       <use xlink:href="#DejaVuSans-73" x="124.267578"/>
       <use xlink:href="#DejaVuSans-6d" x="176.367188"/>
       <use xlink:href="#DejaVuSans-61" x="273.779297"/>
       <use xlink:href="#DejaVuSans-72" x="335.058594"/>
       <use xlink:href="#DejaVuSans-74" x="376.171875"/>
      </g>
     </g>
    </g>
    <g id="ytick_5">
     <g id="line2d_19">
      <g>
       <use xlink:href="#m1c66748923" x="139.44375" y="92.736" style="stroke: #000000; stroke-width: 0.8"/>
      </g>
     </g>
     <g id="text_19">
      <!-- eclipser -->
      <g transform="translate(93.414062 96.535219)scale(0.1 -0.1)">
       <use xlink:href="#DejaVuSans-65"/>
       <use xlink:href="#DejaVuSans-63" x="61.523438"/>
       <use xlink:href="#DejaVuSans-6c" x="116.503906"/>
       <use xlink:href="#DejaVuSans-69" x="144.287109"/>
       <use xlink:href="#DejaVuSans-70" x="172.070312"/>
       <use xlink:href="#DejaVuSans-73" x="235.546875"/>
       <use xlink:href="#DejaVuSans-65" x="287.646484"/>
       <use xlink:href="#DejaVuSans-72" x="349.169922"/>
      </g>
     </g>
    </g>
    <g id="ytick_6">
     <g id="line2d_20">
      <g>
       <use xlink:href="#m1c66748923" x="139.44375" y="111.744" style="stroke: #000000; stroke-width: 0.8"/>
      </g>
     </g>
     <g id="text_20">
      <!-- entropic -->
      <g transform="translate(91.403125 115.543219)scale(0.1 -0.1)">
       <use xlink:href="#DejaVuSans-65"/>
       <use xlink:href="#DejaVuSans-6e" x="61.523438"/>
       <use xlink:href="#DejaVuSans-74" x="124.902344"/>
       <use xlink:href="#DejaVuSans-72" x="164.111328"/>
       <use xlink:href="#DejaVuSans-6f" x="202.974609"/>
       <use xlink:href="#DejaVuSans-70" x="264.15625"/>
       <use xlink:href="#DejaVuSans-69" x="327.632812"/>
       <use xlink:href="#DejaVuSans-63" x="355.416016"/>
      </g>
     </g>
    </g>
    <g id="ytick_7">
     <g id="line2d_21">
      <g>
       <use xlink:href="#m1c66748923" x="139.44375" y="130.752" style="stroke: #000000; stroke-width: 0.8"/>
      </g>
     </g>
     <g id="text_21">
      <!-- fairfuzz -->
      <g transform="translate(95.551562 134.551219)scale(0.1 -0.1)">
       <use xlink:href="#DejaVuSans-66"/>
       <use xlink:href="#DejaVuSans-61" x="35.205078"/>
       <use xlink:href="#DejaVuSans-69" x="96.484375"/>
       <use xlink:href="#DejaVuSans-72" x="124.267578"/>
       <use xlink:href="#DejaVuSans-66" x="165.380859"/>
       <use xlink:href="#DejaVuSans-75" x="200.585938"/>
       <use xlink:href="#DejaVuSans-7a" x="263.964844"/>
       <use xlink:href="#DejaVuSans-7a" x="316.455078"/>
      </g>
     </g>
    </g>
    <g id="ytick_8">
     <g id="line2d_22">
      <g>
       <use xlink:href="#m1c66748923" x="139.44375" y="149.76" style="stroke: #000000; stroke-width: 0.8"/>
      </g>
     </g>
     <g id="text_22">
      <!-- fuzzolic_aflplusplus_z3 -->
      <g transform="translate(19.53125 153.559219)scale(0.1 -0.1)">
       <use xlink:href="#DejaVuSans-66"/>
       <use xlink:href="#DejaVuSans-75" x="35.205078"/>
       <use xlink:href="#DejaVuSans-7a" x="98.583984"/>
       <use xlink:href="#DejaVuSans-7a" x="151.074219"/>
       <use xlink:href="#DejaVuSans-6f" x="203.564453"/>
       <use xlink:href="#DejaVuSans-6c" x="264.746094"/>
       <use xlink:href="#DejaVuSans-69" x="292.529297"/>
       <use xlink:href="#DejaVuSans-63" x="320.3125"/>
       <use xlink:href="#DejaVuSans-5f" x="375.292969"/>
       <use xlink:href="#DejaVuSans-61" x="425.292969"/>
       <use xlink:href="#DejaVuSans-66" x="486.572266"/>
       <use xlink:href="#DejaVuSans-6c" x="521.777344"/>
       <use xlink:href="#DejaVuSans-70" x="549.560547"/>
       <use xlink:href="#DejaVuSans-6c" x="613.037109"/>
       <use xlink:href="#DejaVuSans-75" x="640.820312"/>
       <use xlink:href="#DejaVuSans-73" x="704.199219"/>
       <use xlink:href="#DejaVuSans-70" x="756.298828"/>
       <use xlink:href="#DejaVuSans-6c" x="819.775391"/>
       <use xlink:href="#DejaVuSans-75" x="847.558594"/>
       <use xlink:href="#DejaVuSans-73" x="910.9375"/>
       <use xlink:href="#DejaVuSans-5f" x="963.037109"/>
       <use xlink:href="#DejaVuSans-7a" x="1013.037109"/>
       <use xlink:href="#DejaVuSans-33" x="1065.527344"/>
      </g>
     </g>
    </g>
    <g id="ytick_9">
     <g id="line2d_23">
      <g>
       <use xlink:href="#m1c66748923" x="139.44375" y="168.768" style="stroke: #000000; stroke-width: 0.8"/>
      </g>
     </g>
     <g id="text_23">
      <!-- honggfuzz -->
      <g transform="translate(80.598437 172.567219)scale(0.1 -0.1)">
       <use xlink:href="#DejaVuSans-68"/>
       <use xlink:href="#DejaVuSans-6f" x="63.378906"/>
       <use xlink:href="#DejaVuSans-6e" x="124.560547"/>
       <use xlink:href="#DejaVuSans-67" x="187.939453"/>
       <use xlink:href="#DejaVuSans-67" x="251.416016"/>
       <use xlink:href="#DejaVuSans-66" x="314.892578"/>
       <use xlink:href="#DejaVuSans-75" x="350.097656"/>
       <use xlink:href="#DejaVuSans-7a" x="413.476562"/>
       <use xlink:href="#DejaVuSans-7a" x="465.966797"/>
      </g>
     </g>
    </g>
    <g id="ytick_10">
     <g id="line2d_24">
      <g>
       <use xlink:href="#m1c66748923" x="139.44375" y="187.776" style="stroke: #000000; stroke-width: 0.8"/>
      </g>
     </g>
     <g id="text_24">
      <!-- lafintel -->
      <g transform="translate(98.05 191.575219)scale(0.1 -0.1)">
       <use xlink:href="#DejaVuSans-6c"/>
       <use xlink:href="#DejaVuSans-61" x="27.783203"/>
       <use xlink:href="#DejaVuSans-66" x="89.0625"/>
       <use xlink:href="#DejaVuSans-69" x="124.267578"/>
       <use xlink:href="#DejaVuSans-6e" x="152.050781"/>
       <use xlink:href="#DejaVuSans-74" x="215.429688"/>
       <use xlink:href="#DejaVuSans-65" x="254.638672"/>
       <use xlink:href="#DejaVuSans-6c" x="316.162109"/>
      </g>
     </g>
    </g>
    <g id="ytick_11">
     <g id="line2d_25">
      <g>
       <use xlink:href="#m1c66748923" x="139.44375" y="206.784" style="stroke: #000000; stroke-width: 0.8"/>
      </g>
     </g>
     <g id="text_25">
      <!-- libfuzzer -->
      <g transform="translate(89.920312 210.583219)scale(0.1 -0.1)">
       <use xlink:href="#DejaVuSans-6c"/>
       <use xlink:href="#DejaVuSans-69" x="27.783203"/>
       <use xlink:href="#DejaVuSans-62" x="55.566406"/>
       <use xlink:href="#DejaVuSans-66" x="119.042969"/>
       <use xlink:href="#DejaVuSans-75" x="154.248047"/>
       <use xlink:href="#DejaVuSans-7a" x="217.626953"/>
       <use xlink:href="#DejaVuSans-7a" x="270.117188"/>
       <use xlink:href="#DejaVuSans-65" x="322.607422"/>
       <use xlink:href="#DejaVuSans-72" x="384.130859"/>
      </g>
     </g>
    </g>
    <g id="ytick_12">
     <g id="line2d_26">
      <g>
       <use xlink:href="#m1c66748923" x="139.44375" y="225.792" style="stroke: #000000; stroke-width: 0.8"/>
      </g>
     </g>
     <g id="text_26">
      <!-- mopt -->
      <g transform="translate(106.315625 229.591219)scale(0.1 -0.1)">
       <use xlink:href="#DejaVuSans-6d"/>
       <use xlink:href="#DejaVuSans-6f" x="97.412109"/>
       <use xlink:href="#DejaVuSans-70" x="158.59375"/>
       <use xlink:href="#DejaVuSans-74" x="222.070312"/>
      </g>
     </g>
    </g>
    <g id="ytick_13">
     <g id="line2d_27">
      <g>
       <use xlink:href="#m1c66748923" x="139.44375" y="244.8" style="stroke: #000000; stroke-width: 0.8"/>
      </g>
     </g>
     <g id="text_27">
      <!-- symcc_aflplusplus_single -->
      <g transform="translate(7.2 248.599219)scale(0.1 -0.1)">
       <use xlink:href="#DejaVuSans-73"/>
       <use xlink:href="#DejaVuSans-79" x="52.099609"/>
       <use xlink:href="#DejaVuSans-6d" x="111.279297"/>
       <use xlink:href="#DejaVuSans-63" x="208.691406"/>
       <use xlink:href="#DejaVuSans-63" x="263.671875"/>
       <use xlink:href="#DejaVuSans-5f" x="318.652344"/>
       <use xlink:href="#DejaVuSans-61" x="368.652344"/>
       <use xlink:href="#DejaVuSans-66" x="429.931641"/>
       <use xlink:href="#DejaVuSans-6c" x="465.136719"/>
       <use xlink:href="#DejaVuSans-70" x="492.919922"/>
       <use xlink:href="#DejaVuSans-6c" x="556.396484"/>
       <use xlink:href="#DejaVuSans-75" x="584.179688"/>
       <use xlink:href="#DejaVuSans-73" x="647.558594"/>
       <use xlink:href="#DejaVuSans-70" x="699.658203"/>
       <use xlink:href="#DejaVuSans-6c" x="763.134766"/>
       <use xlink:href="#DejaVuSans-75" x="790.917969"/>
       <use xlink:href="#DejaVuSans-73" x="854.296875"/>
       <use xlink:href="#DejaVuSans-5f" x="906.396484"/>
       <use xlink:href="#DejaVuSans-73" x="956.396484"/>
       <use xlink:href="#DejaVuSans-69" x="1008.496094"/>
       <use xlink:href="#DejaVuSans-6e" x="1036.279297"/>
       <use xlink:href="#DejaVuSans-67" x="1099.658203"/>
       <use xlink:href="#DejaVuSans-6c" x="1163.134766"/>
       <use xlink:href="#DejaVuSans-65" x="1190.917969"/>
      </g>
     </g>
    </g>
    <g id="ytick_14">
     <g id="line2d_28">
      <g>
       <use xlink:href="#m1c66748923" x="139.44375" y="263.808" style="stroke: #000000; stroke-width: 0.8"/>
      </g>
     </g>
     <g id="text_28">
      <!-- symqemu_aflplusplus -->
      <g transform="translate(24.221875 267.607219)scale(0.1 -0.1)">
       <use xlink:href="#DejaVuSans-73"/>
       <use xlink:href="#DejaVuSans-79" x="52.099609"/>
       <use xlink:href="#DejaVuSans-6d" x="111.279297"/>
       <use xlink:href="#DejaVuSans-71" x="208.691406"/>
       <use xlink:href="#DejaVuSans-65" x="272.167969"/>
       <use xlink:href="#DejaVuSans-6d" x="333.691406"/>
       <use xlink:href="#DejaVuSans-75" x="431.103516"/>
       <use xlink:href="#DejaVuSans-5f" x="494.482422"/>
       <use xlink:href="#DejaVuSans-61" x="544.482422"/>
       <use xlink:href="#DejaVuSans-66" x="605.761719"/>
       <use xlink:href="#DejaVuSans-6c" x="640.966797"/>
       <use xlink:href="#DejaVuSans-70" x="668.75"/>
       <use xlink:href="#DejaVuSans-6c" x="732.226562"/>
       <use xlink:href="#DejaVuSans-75" x="760.009766"/>
       <use xlink:href="#DejaVuSans-73" x="823.388672"/>
       <use xlink:href="#DejaVuSans-70" x="875.488281"/>
       <use xlink:href="#DejaVuSans-6c" x="938.964844"/>
       <use xlink:href="#DejaVuSans-75" x="966.748047"/>
       <use xlink:href="#DejaVuSans-73" x="1030.126953"/>
      </g>
     </g>
    </g>
   </g>
  </g>
  <g id="axes_2">
   <g id="patch_3">
    <path d="M 423.41175 204.192 
L 429.80535 204.192 
L 429.80535 76.32 
L 423.41175 76.32 
z
" style="fill: #ffffff"/>
   </g>
   <g id="patch_4">
    <path clip-path="url(#p1dfbe92615)" style="fill: #ffffff; stroke: #ffffff; stroke-width: 0.01; stroke-linejoin: miter"/>
   </g>
   <g id="QuadMesh_2">
    <path d="M 423.41175 204.192 
L 429.80535 204.192 
L 429.80535 172.224 
L 423.41175 172.224 
L 423.41175 204.192 
" clip-path="url(#p1dfbe92615)" style="fill: #005a32"/>
    <path d="M 423.41175 172.224 
L 429.80535 172.224 
L 429.80535 140.256 
L 423.41175 140.256 
L 423.41175 172.224 
" clip-path="url(#p1dfbe92615)" style="fill: #238b45"/>
    <path d="M 423.41175 140.256 
L 429.80535 140.256 
L 429.80535 108.288 
L 423.41175 108.288 
L 423.41175 140.256 
" clip-path="url(#p1dfbe92615)" style="fill: #a1d99b"/>
    <path d="M 423.41175 108.288 
L 429.80535 108.288 
L 429.80535 76.32 
L 423.41175 76.32 
L 423.41175 108.288 
" clip-path="url(#p1dfbe92615)" style="fill: #fbd7d4"/>
   </g>
   <g id="matplotlib.axis_3">
    <g id="ytick_15">
     <g id="line2d_29"/>
    </g>
    <g id="ytick_16">
     <g id="line2d_30"/>
    </g>
    <g id="ytick_17">
     <g id="line2d_31"/>
    </g>
    <g id="ytick_18">
     <g id="line2d_32"/>
    </g>
   </g>
   <g id="LineCollection_1"/>
   <g id="patch_5">
    <path d="M 423.41175 204.192 
L 426.60855 204.192 
L 429.80535 204.192 
L 429.80535 76.32 
L 426.60855 76.32 
L 423.41175 76.32 
L 423.41175 204.192 
z
" style="fill: none; stroke: #808080; stroke-linejoin: miter; stroke-linecap: square"/>
   </g>
  </g>
 </g>
 <defs>
  <clipPath id="p5c9e1bbc8b">
   <rect x="139.44375" y="7.2" width="266.112" height="266.112"/>
  </clipPath>
  <clipPath id="p1dfbe92615">
   <rect x="423.41175" y="76.32" width="6.3936" height="127.872"/>
  </clipPath>
 </defs>
</svg>
